<svg width="40" height="25" viewBox="0 0 40 25" fill="none" xmlns="http://www.w3.org/2000/svg">
<path d="M36.197 0H3.803C3.66806 0 3.53288 0 3.39818 0.000707781C3.28446 0.00165149 3.17097 0.00283112 3.05725 0.00589817C2.80954 0.0125041 2.55969 0.0271316 2.31508 0.0705422C2.06977 0.112134 1.83209 0.189661 1.60986 0.300571C1.16312 0.525428 0.800002 0.884765 0.572778 1.32685C0.4605 1.54685 0.382148 1.78224 0.340328 2.0252C0.295983 2.26749 0.28144 2.51451 0.274765 2.7594C0.271859 2.87184 0.270111 2.9843 0.26952 3.09678C0.269043 3.22984 0.269043 3.36337 0.269043 3.49714V21.5026C0.269043 21.6364 0.269043 21.7697 0.26952 21.9035C0.270235 22.0158 0.271665 22.1283 0.274765 22.2408C0.28144 22.4853 0.296222 22.7325 0.340328 22.9746C0.382062 23.2175 0.460334 23.4529 0.572539 23.6729C0.685351 23.8926 0.832605 24.0933 1.00883 24.2674C1.18475 24.4419 1.38754 24.5876 1.60962 24.6992C1.8354 24.8131 2.06666 24.8856 2.31532 24.9297C2.55969 24.9729 2.80954 24.9875 3.05725 24.9941C3.17097 24.9967 3.28446 24.9981 3.39818 24.9988C3.53288 24.9998 3.66806 24.9998 3.803 24.9998H36.197C36.3317 24.9998 36.4669 24.9998 36.6016 24.9988C36.7151 24.9983 36.8286 24.9967 36.9428 24.9941C37.19 24.9875 37.4398 24.9729 37.6849 24.9297C37.9303 24.8881 38.168 24.8104 38.3902 24.6992C38.8367 24.474 39.1997 24.1148 39.4272 23.6729C39.5424 23.4495 39.6153 23.2206 39.6594 22.9746C39.7038 22.7325 39.7181 22.4853 39.7248 22.2408C39.7279 22.1283 39.7295 22.0158 39.73 21.9035C39.731 21.7697 39.731 21.6364 39.731 21.5026V3.49738C39.731 3.36361 39.731 3.23008 39.73 3.09654C39.7296 2.98415 39.7278 2.87176 39.7248 2.7594C39.7181 2.51451 39.7038 2.26749 39.6594 2.0252C39.6179 1.7822 39.5396 1.54677 39.4272 1.32685C39.1999 0.884842 38.8368 0.525534 38.3902 0.300571C38.1679 0.189775 37.9302 0.112329 37.6849 0.0707781C37.4398 0.0271316 37.19 0.0127401 36.9428 0.0061341C36.8291 0.00327638 36.7153 0.00154617 36.6016 0.000943708C36.4669 0 36.3317 0 36.197 0Z" fill="black"/>
<path d="M36.197 0.833496L36.5956 0.834204C36.7034 0.834912 36.8114 0.836091 36.9198 0.838922C37.1089 0.844113 37.3297 0.854258 37.5357 0.890826C37.7145 0.922676 37.8647 0.971041 38.0087 1.04371C38.2968 1.1887 38.531 1.42062 38.6772 1.70595C38.7501 1.84751 38.7988 1.9952 38.8309 2.1738C38.8677 2.37528 38.8779 2.59445 38.8829 2.78249C38.886 2.88866 38.8874 2.99482 38.8877 3.10335C38.8889 3.23476 38.8889 3.36594 38.8889 3.49758V21.5031C38.8889 21.6347 38.8889 21.7659 38.8879 21.8999C38.8874 22.0061 38.886 22.1122 38.8832 22.2184C38.8779 22.4062 38.8677 22.6254 38.8305 22.8292C38.8034 22.9914 38.7516 23.1485 38.6767 23.2952C38.5302 23.5806 38.2957 23.8125 38.0072 23.9574C37.8642 24.0296 37.7145 24.078 37.5373 24.1096C37.3273 24.1466 37.097 24.1568 36.9237 24.1615C36.8147 24.1638 36.7062 24.1655 36.5949 24.166C36.4626 24.1669 36.3295 24.1669 36.197 24.1669H3.79773C3.6666 24.1669 3.53548 24.1669 3.40197 24.166C3.29467 24.1655 3.18739 24.1641 3.08012 24.1617C2.90274 24.157 2.67243 24.1466 2.46406 24.1098C2.29932 24.0826 2.13968 24.0309 1.99058 23.9565C1.84756 23.8846 1.71703 23.7906 1.60388 23.6781C1.49037 23.5659 1.39558 23.4367 1.32303 23.2952C1.24811 23.1476 1.19618 22.9897 1.16902 22.8268C1.13183 22.6232 1.12134 22.405 1.11657 22.2186C1.11387 22.1121 1.11228 22.0055 1.1118 21.8989L1.11108 21.5859V3.41501L1.11156 3.10241C1.11205 2.99567 1.11364 2.88895 1.11633 2.78225C1.12157 2.5954 1.13183 2.37717 1.16926 2.17191C1.19648 2.00932 1.2484 1.85175 1.32327 1.70454C1.39575 1.56345 1.49016 1.43464 1.60459 1.32163C1.71801 1.20921 1.84869 1.11525 1.99177 1.04324C2.14051 0.96929 2.29964 0.917912 2.46382 0.890826C2.67005 0.854258 2.89106 0.844113 3.08035 0.838922C3.18812 0.836091 3.29612 0.834912 3.40316 0.834204L3.80298 0.833496H36.197Z" fill="white"/>
<path d="M10.6417 8.43912C10.9765 8.02507 11.2034 7.46899 11.1436 6.90088C10.6539 6.92494 10.0564 7.22056 9.71027 7.63508C9.39962 7.98992 9.12473 8.56912 9.19626 9.1134C9.74603 9.16059 10.2953 8.84161 10.6417 8.43912Z" fill="black"/>
<path d="M11.1374 9.21997C10.3388 9.17278 9.66026 9.66823 9.27904 9.66823C8.89758 9.66823 8.31371 9.24356 7.68217 9.25512C6.86037 9.26692 6.09793 9.72697 5.68071 10.4583C4.82291 11.9211 5.45422 14.0916 6.28866 15.2831C6.69372 15.8729 7.18198 16.5217 7.82521 16.4983C8.43316 16.4747 8.67133 16.109 9.40993 16.109C10.1483 16.109 10.3629 16.4983 11.0063 16.4865C11.6734 16.4747 12.0906 15.8967 12.4957 15.3069C12.9606 14.6345 13.1506 13.9857 13.1625 13.9503C13.1506 13.9385 11.876 13.4546 11.8641 12.0037C11.8522 10.7886 12.865 10.2106 12.9127 10.175C12.3407 9.33793 11.4471 9.24356 11.1372 9.21997" fill="black"/>
<path d="M19.097 7.57568C20.8322 7.57568 22.0407 8.75933 22.0407 10.4825C22.0407 12.2119 20.8074 13.4017 19.0536 13.4017H17.1325V16.4253H15.7445V7.57568H19.097ZM17.1325 12.2487H18.7251C19.9339 12.2487 20.6214 11.6048 20.6214 10.4887C20.6214 9.37274 19.9336 8.73479 18.7313 8.73479H17.1325V12.2487Z" fill="black"/>
<path d="M22.385 14.5917C22.385 13.4571 23.2588 12.8071 24.87 12.709L26.5989 12.6047V12.114C26.5989 11.3968 26.1219 11.0042 25.2729 11.0042C24.5724 11.0042 24.0641 11.3597 23.9592 11.9054H22.7071C22.7445 10.7588 23.835 9.9248 25.3101 9.9248C26.8964 9.9248 27.9314 10.7465 27.9314 12.0222V16.4253H26.6487V15.3643H26.6177C26.252 16.0573 25.4462 16.4925 24.5724 16.4925C23.2836 16.4925 22.385 15.7324 22.385 14.5917ZM26.5989 14.0214V13.5246L25.0559 13.6227C24.1881 13.6779 23.7361 13.9967 23.7361 14.5546C23.7361 15.0944 24.2069 15.4441 24.9443 15.4441C25.8861 15.4441 26.5989 14.8491 26.5989 14.0214Z" fill="black"/>
<path d="M29.1107 18.7922V17.7315C29.1975 17.7435 29.408 17.7558 29.5196 17.7558C30.133 17.7558 30.4802 17.4986 30.6909 16.8359L30.8149 16.4435L28.4661 10.0044H29.9161L31.5523 15.2292H31.5833L33.2192 10.0044H34.6323L32.1967 16.7684C31.6388 18.3201 31.0006 18.8292 29.6498 18.8292C29.5444 18.8292 29.2035 18.817 29.1107 18.7922Z" fill="black"/>
</svg>
