<svg width="40" height="25" viewBox="0 0 40 25" fill="none" xmlns="http://www.w3.org/2000/svg">
<path d="M36.8421 0H3.15789C1.36842 0 0 1.35417 0 3.125V21.875C0 23.6458 1.47368 25 3.15789 25H36.8421C38.6316 25 40 23.6458 40 21.875V3.125C40 1.35417 38.5263 0 36.8421 0Z" fill="black"/>
<path d="M36.8421 1.0415C38 1.0415 38.9473 1.979 38.9473 3.12484V21.8748C38.9473 23.0207 38 23.9582 36.8421 23.9582H3.15788C1.99998 23.9582 1.05261 23.0207 1.05261 21.8748V3.12484C1.05261 1.979 1.99998 1.0415 3.15788 1.0415H36.8421Z" fill="white"/>
<path d="M19.0452 12.4748V15.8081H17.9736V7.57898H20.8063C21.1457 7.57329 21.4829 7.63405 21.7984 7.75776C22.114 7.88146 22.4018 8.06568 22.6452 8.29981C22.8758 8.51272 23.0617 8.76851 23.1923 9.05256C23.3229 9.33661 23.3957 9.64334 23.4064 9.95523C23.4172 10.2671 23.3657 10.5781 23.255 10.8702C23.1442 11.1624 22.9764 11.4302 22.761 11.6581L22.6452 11.779C22.1505 12.2446 21.4894 12.4977 20.8063 12.4811L19.0452 12.4748ZM19.0452 8.58731V11.4915H20.8326C21.2294 11.504 21.6126 11.3509 21.8905 11.0706C22.0893 10.8656 22.2227 10.6073 22.2743 10.3278C22.3259 10.0483 22.2933 9.7599 22.1805 9.49859C22.0678 9.23728 21.8799 9.01453 21.6402 8.85806C21.4006 8.70159 21.1197 8.61831 20.8326 8.61856L19.0452 8.58731ZM25.8705 9.99148C26.5547 9.96023 27.2242 10.1873 27.7421 10.63C28.2105 11.0779 28.4599 11.7029 28.4263 12.3477V15.8206H27.4063V15.0227H27.3547C27.1718 15.322 26.9131 15.5689 26.6042 15.739C26.2954 15.909 25.9471 15.9964 25.5936 15.9925C25.0167 16.011 24.4541 15.8126 24.0189 15.4373C23.8127 15.2709 23.6475 15.0602 23.5357 14.8213C23.4239 14.5824 23.3685 14.3214 23.3736 14.0581C23.3615 13.7921 23.4137 13.527 23.5259 13.285C23.6382 13.0429 23.8072 12.8309 24.0189 12.6665C24.5383 12.2969 25.1669 12.1082 25.8063 12.13C26.3505 12.1092 26.8905 12.2269 27.3747 12.4748V12.2581C27.3782 12.079 27.3406 11.9014 27.2645 11.7388C27.1885 11.5762 27.076 11.4329 26.9357 11.3196C26.654 11.0661 26.2849 10.929 25.9042 10.9363C25.6277 10.9337 25.3551 11.0009 25.1121 11.1316C24.8692 11.2623 24.6639 11.4521 24.5157 11.6831L23.5736 11.0956C23.8294 10.7329 24.1748 10.4411 24.5769 10.2478C24.9789 10.0545 25.4242 9.96627 25.8705 9.99148ZM24.5157 14.0831C24.5132 14.2181 24.5442 14.3515 24.6061 14.4718C24.668 14.592 24.7587 14.6954 24.8705 14.7727C25.1052 14.9561 25.3968 15.0529 25.6968 15.0467C26.1484 15.0456 26.581 14.8696 26.9031 14.555C27.2242 14.2571 27.4063 13.8415 27.4063 13.4061C27.001 13.121 26.5086 12.9833 26.0126 13.0165C25.6274 13.0015 25.2475 13.1088 24.9284 13.3227C24.802 13.4064 24.6983 13.5195 24.6263 13.6521C24.5544 13.7846 24.5164 13.9327 24.5157 14.0831ZM34.2905 10.1769L30.7221 18.2915H29.6189L30.9673 15.4498L28.6263 10.1769H29.7873L31.4842 14.2238L33.1357 10.1769H34.2905Z" fill="#5F6368"/>
<path d="M14.7221 11.7542C14.7221 11.4334 14.6969 11.1126 14.6453 10.7959H10.1295V12.6157H12.7095C12.657 12.9049 12.546 13.1806 12.3832 13.4264C12.2204 13.6722 12.0092 13.8829 11.7621 14.0459V15.2271H13.3032C13.7718 14.7785 14.1401 14.2376 14.3845 13.6395C14.6289 13.0413 14.7439 12.3991 14.7221 11.7542Z" fill="#4285F4"/>
<path d="M10.1357 16.3761C11.3003 16.4077 12.4333 15.9991 13.3042 15.2334L11.761 14.0459C11.3902 14.2812 10.9701 14.4296 10.5326 14.4801C10.0951 14.5305 9.65176 14.4815 9.23625 14.3369C8.82075 14.1923 8.44405 13.9558 8.13479 13.6455C7.82553 13.3351 7.59185 12.9591 7.45154 12.5459H5.87048V13.7646C6.26611 14.5491 6.87474 15.2089 7.62812 15.6702C8.3815 16.1314 9.24983 16.3759 10.1357 16.3761Z" fill="#34A853"/>
<path d="M7.45156 12.5519C7.25135 11.9658 7.25135 11.3308 7.45156 10.7446V9.52588H5.87051C5.53345 10.1836 5.35779 10.9108 5.35779 11.6483C5.35779 12.3858 5.53345 13.1129 5.87051 13.7707L7.45156 12.5519Z" fill="#FBBC04"/>
<path d="M10.1357 8.7919C10.8168 8.77959 11.4752 9.0342 11.9673 9.50024L13.3357 8.15336C12.4632 7.34296 11.3059 6.90092 10.1094 6.92107C9.22876 6.92544 8.36653 7.17107 7.61831 7.63074C6.87009 8.0904 6.26512 8.74613 5.87048 9.52524L7.45154 10.745C7.6364 10.1826 7.99479 9.6917 8.47628 9.34135C8.95777 8.991 9.53814 8.79884 10.1357 8.7919Z" fill="#EA4335"/>
</svg>
