<svg width="40" height="25" viewBox="0 0 40 25" fill="none" xmlns="http://www.w3.org/2000/svg">
<path d="M36.8421 0H3.15789C1.36842 0 0 1.35417 0 3.125V21.875C0 23.6458 1.47368 25 3.15789 25H36.8421C38.6316 25 40 23.6458 40 21.875V3.125C40 1.35417 38.5263 0 36.8421 0Z" fill="black"/>
<path d="M36.8421 1.0415C38 1.0415 38.9473 1.979 38.9473 3.12484V21.8748C38.9473 23.0207 38 23.9582 36.8421 23.9582H3.15788C1.99998 23.9582 1.05261 23.0207 1.05261 21.8748V3.12484C1.05261 1.979 1.99998 1.0415 3.15788 1.0415H36.8421Z" fill="white"/>
<path d="M15.7894 19.7918C19.8589 19.7918 23.1579 16.5272 23.1579 12.5002C23.1579 8.47309 19.8589 5.2085 15.7894 5.2085C11.72 5.2085 8.42102 8.47309 8.42102 12.5002C8.42102 16.5272 11.72 19.7918 15.7894 19.7918Z" fill="#EB001B"/>
<path d="M24.2106 19.7918C28.2801 19.7918 31.579 16.5272 31.579 12.5002C31.579 8.47309 28.2801 5.2085 24.2106 5.2085C20.1411 5.2085 16.8422 8.47309 16.8422 12.5002C16.8422 16.5272 20.1411 19.7918 24.2106 19.7918Z" fill="#F79E1B"/>
<path d="M23.158 12.5C23.158 10 21.8948 7.8125 20.0001 6.5625C18.1053 7.91667 16.8422 10.1042 16.8422 12.5C16.8422 14.8958 18.1053 17.1875 20.0001 18.4375C21.8948 17.1875 23.158 15 23.158 12.5Z" fill="#FF5F00"/>
</svg>
