<svg width="40" height="25" viewBox="0 0 40 25" fill="none" xmlns="http://www.w3.org/2000/svg">
<path d="M36.8421 0H3.15789C1.36842 0 0 1.35417 0 3.125V21.875C0 23.6458 1.47368 25 3.15789 25H36.8421C38.6316 25 40 23.6458 40 21.875V3.125C40 1.35417 38.5263 0 36.8421 0Z" fill="black"/>
<path d="M36.8421 1.0415C38 1.0415 38.9473 1.979 38.9473 3.12484V21.8748C38.9473 23.0207 38 23.9582 36.8421 23.9582H3.15788C1.99998 23.9582 1.05261 23.0207 1.05261 21.8748V3.12484C1.05261 1.979 1.99998 1.0415 3.15788 1.0415H36.8421Z" fill="white"/>
<path d="M29.7895 10.521H29.4737C29.0527 11.5627 28.7369 12.0835 28.4211 13.646H30.4211C30.1053 12.0835 30.1053 11.3543 29.7895 10.521ZM32.8421 16.6668H31.0527C30.9474 16.6668 30.9474 16.6668 30.8421 16.5627L30.6316 15.6252L30.5263 15.4168H28C27.8948 15.4168 27.7895 15.4168 27.7895 15.6252L27.4737 16.5627C27.4737 16.6668 27.3684 16.6668 27.3684 16.6668H25.1579L25.3684 16.146L28.4211 9.06266C28.4211 8.54183 28.7369 8.3335 29.2632 8.3335H30.8421C30.9474 8.3335 31.0527 8.3335 31.0527 8.54183L32.5263 15.3127C32.6316 15.7293 32.7369 16.0418 32.7369 16.4585C32.8421 16.5627 32.8421 16.5627 32.8421 16.6668ZM18.7369 16.3543L19.1579 14.4793C19.2632 14.4793 19.3684 14.5835 19.3684 14.5835C20.1053 14.896 20.8421 15.1043 21.579 15.0002C21.7895 15.0002 22.1053 14.896 22.3158 14.7918C22.8421 14.5835 22.8421 14.0627 22.4211 13.646C22.2106 13.4377 21.8948 13.3335 21.579 13.1252C21.1579 12.9168 20.7369 12.7085 20.4211 12.396C19.1579 11.3543 19.579 9.896 20.3158 9.16683C20.9474 8.75016 21.2632 8.3335 22.1053 8.3335C23.3684 8.3335 24.7369 8.3335 25.3684 8.54183H25.4737C25.3684 9.16683 25.2632 9.68766 25.0527 10.3127C24.5263 10.1043 24 9.896 23.4737 9.896C23.1579 9.896 22.8421 9.896 22.5263 10.0002C22.3158 10.0002 22.2106 10.1043 22.1053 10.2085C21.8948 10.4168 21.8948 10.7293 22.1053 10.9377L22.6316 11.3543C23.0527 11.5627 23.4737 11.771 23.7895 11.9793C24.3158 12.2918 24.8421 12.8127 24.9474 13.4377C25.1579 14.3752 24.8421 15.2085 24 15.8335C23.4737 16.2502 23.2632 16.4585 22.5263 16.4585C21.0527 16.4585 19.8948 16.5627 18.9474 16.2502C18.8421 16.4585 18.8421 16.4585 18.7369 16.3543ZM15.0527 16.6668C15.1579 15.9377 15.1579 15.9377 15.2632 15.6252C15.7895 13.3335 16.3158 10.9377 16.7369 8.646C16.8421 8.43766 16.8421 8.3335 17.0527 8.3335H18.9474C18.7369 9.5835 18.5263 10.521 18.2106 11.6668C17.8948 13.2293 17.579 14.7918 17.1579 16.3543C17.1579 16.5627 17.0527 16.5627 16.8421 16.5627M5.26318 8.54183C5.26318 8.43766 5.47371 8.3335 5.57897 8.3335H9.15792C9.68424 8.3335 10.1053 8.646 10.2106 9.16683L11.1579 13.7502C11.1579 13.8543 11.1579 13.8543 11.2632 13.9585C11.2632 13.8543 11.3684 13.8543 11.3684 13.8543L13.579 8.54183C13.4737 8.43766 13.579 8.3335 13.6842 8.3335H15.8948C15.8948 8.43766 15.8948 8.43766 15.7895 8.54183L12.5263 16.146C12.4211 16.3543 12.4211 16.4585 12.3158 16.5627C12.2106 16.6668 12 16.5627 11.7895 16.5627H10.2106C10.1053 16.5627 10 16.5627 10 16.3543L8.31581 9.896C8.10529 9.68766 7.7895 9.37516 7.36845 9.271C6.73687 8.9585 5.57897 8.75016 5.36845 8.75016L5.26318 8.54183Z" fill="#142688"/>
</svg>
