<svg width="150" height="55" viewBox="0 0 150 55" fill="none" xmlns="http://www.w3.org/2000/svg">
<path d="M8.46712 15.096C8.29749 15.0277 8.12844 14.9585 7.95846 14.8913C7.25791 14.6149 6.62074 14.2445 6.1376 13.649C5.63346 13.0272 5.45806 12.2947 5.46582 11.5159C5.4735 10.7618 5.53474 10.0084 5.54111 9.25428C5.54564 8.73971 5.49248 8.22487 5.47224 7.70984C5.44777 7.08317 5.52028 6.46674 5.68883 5.86261C5.72432 5.73511 5.77392 5.60934 5.83386 5.49153C6.03478 5.09559 6.36133 4.94496 6.83076 5.01765C7.33069 5.09512 7.79349 5.28264 8.23933 5.51086C9.7864 6.30297 10.9569 7.50042 11.8616 8.96471C12.5752 10.12 13.1395 11.3492 13.4762 12.6699C13.6095 13.1934 13.6758 13.7343 13.7728 14.2674C13.7897 14.3594 13.8076 14.451 13.8297 14.5665C13.9525 14.485 14.0524 14.419 14.1802 14.3343C14.1373 14.2767 14.0979 14.2335 14.0699 14.1838C13.9194 13.9164 13.9818 13.6347 14.2248 13.4464C14.2667 13.4139 14.3192 13.3638 14.3237 13.3178C14.4292 12.186 14.3682 11.0756 13.894 10.0187C13.678 9.53719 13.3894 9.12568 12.9061 8.86971C12.6101 8.71282 12.5343 8.39203 12.6954 8.11902C12.8232 7.90197 13.078 7.81522 13.2824 7.95841C13.4524 8.07745 13.6121 8.22942 13.7323 8.39835C14.1523 8.98833 14.3756 9.66614 14.5542 10.3607C14.7978 11.3095 14.8146 12.2738 14.7548 13.2438C14.7525 13.2807 14.7424 13.3221 14.7547 13.3542C14.7747 13.4075 14.8105 13.3865 14.8644 13.413C14.9245 13.4199 14.9529 13.4551 14.979 13.4113C15.2168 13.0154 15.4283 12.6022 15.6844 12.2188C16.3499 11.2223 17.1927 10.4054 18.2451 9.82477C18.4528 9.71017 18.7008 9.65204 18.9378 9.61138C19.1779 9.57029 19.3557 9.70155 19.4235 9.90662C19.493 10.1162 19.4139 10.3602 19.2108 10.4725C19.0992 10.5342 18.9591 10.5854 18.8361 10.5767C18.3763 10.5446 17.9783 10.7037 17.6045 10.9395C16.7968 11.4491 16.1825 12.1447 15.7042 12.9662C15.6266 13.0992 15.5587 13.238 15.4764 13.368C15.371 13.5343 15.3055 13.6844 15.4015 13.8953C15.4908 14.0912 15.3526 14.3502 15.1572 14.466C14.9418 14.5934 14.9418 14.5937 15.0564 14.8215C15.0704 14.8492 15.0895 14.8743 15.1163 14.9162C15.2989 14.7039 15.4692 14.4971 15.6486 14.2982C17.2161 12.5634 19.1046 11.318 21.3296 10.604C22.3416 10.2791 23.3846 10.1152 24.4527 10.2009C25.0598 10.2496 25.6531 10.3672 26.2 10.6531C26.6377 10.8817 26.7752 11.1866 26.6641 11.6698C26.49 12.429 26.1485 13.1155 25.6929 13.7359C25.0615 14.5956 24.5364 15.5156 24.0267 16.4488C23.7033 17.0407 23.2951 17.5707 22.713 17.9406C22.0006 18.3931 21.217 18.4849 20.4 18.3958C20.1368 18.3671 19.8763 18.3135 19.614 18.2731C19.5483 18.2628 19.4815 18.2606 19.397 18.2869C19.4651 18.348 19.53 18.4136 19.6021 18.4702C20.0677 18.8368 20.4961 19.235 20.8084 19.7501C21.3906 20.7106 21.3418 21.6559 20.7319 22.5715C20.1355 23.4671 19.3179 24.096 18.2976 24.4417C17.8613 24.5898 17.4193 24.7365 16.968 24.822C16.1348 24.9801 15.5706 24.6553 15.2401 23.8695C14.973 23.2337 14.8011 22.5679 14.7073 21.8864C14.5809 20.9654 14.4814 20.0405 14.3703 19.1171C14.3584 19.0183 14.3431 18.9198 14.3291 18.8213C14.3148 18.8155 14.3002 18.81 14.2859 18.8042C14.2497 18.861 14.2075 18.9147 14.1784 18.9745C13.8294 19.6908 13.4847 20.4093 13.1324 21.1243C13.0768 21.2373 12.9959 21.3391 12.917 21.4385C12.8117 21.5712 12.6764 21.6568 12.5 21.6038C12.331 21.5529 12.2542 21.4094 12.2444 21.2499C12.2282 20.9855 12.2151 20.717 12.2418 20.4543C12.3065 19.8199 12.3957 19.188 12.4727 18.5546C12.4838 18.465 12.4828 18.3742 12.4875 18.2838C12.4706 18.2779 12.4536 18.2724 12.4367 18.2665C12.3647 18.3476 12.2892 18.4257 12.2212 18.5103C11.6357 19.2387 11.0661 19.9801 10.463 20.6935C9.98884 21.2544 9.46205 21.7672 8.82355 22.1462C8.35567 22.4241 7.86544 22.5065 7.37052 22.2329C7.1788 22.1269 7.00254 21.9785 6.84882 21.8209C6.15255 21.1073 5.53512 20.3338 5.22795 19.3658C5.02897 18.7389 4.93281 18.096 5.05248 17.4319C5.18659 16.6872 5.60151 16.1535 6.23585 15.7763C6.71702 15.4902 7.23853 15.3171 7.79426 15.2459C8.01411 15.2176 8.23275 15.1774 8.45183 15.1425C8.45758 15.1282 8.46255 15.112 8.46712 15.096ZM15.4144 14.1887C15.3133 14.5421 14.9026 14.7341 14.4971 14.6176C14.0917 14.5011 13.8449 14.1202 13.946 13.7667C14.0471 13.4133 14.4579 13.2213 14.8633 13.3378C15.2688 13.4544 15.5156 13.8353 15.4144 14.1887Z" fill="url(#paint0_linear_4019_124)"/>
<path d="M132.148 25.0728C131.984 25.0874 131.82 25.1011 131.656 25.1169C130.982 25.1821 130.319 25.146 129.689 24.8662C129.031 24.5738 128.591 24.058 128.28 23.4302C127.979 22.8221 127.72 22.1927 127.418 21.5851C127.212 21.1705 126.959 20.7793 126.733 20.3744C126.457 19.8817 126.264 19.3576 126.153 18.8039C126.129 18.6871 126.118 18.5659 126.118 18.4468C126.118 18.0469 126.318 17.7924 126.724 17.6584C127.157 17.5158 127.605 17.4767 128.055 17.4771C129.62 17.4789 131.047 17.96 132.37 18.7641C133.413 19.3986 134.368 20.1534 135.176 21.075C135.497 21.4404 135.771 21.8471 136.066 22.235C136.117 22.3019 136.169 22.368 136.233 22.4516C136.299 22.336 136.352 22.242 136.42 22.1218C136.362 22.0932 136.313 22.0746 136.27 22.0463C136.04 21.8934 135.975 21.6418 136.094 21.3913C136.114 21.348 136.136 21.2863 136.12 21.2476C135.743 20.2965 135.242 19.4307 134.43 18.7771C134.06 18.4794 133.661 18.2675 133.169 18.2601C132.868 18.2555 132.676 18.0292 132.694 17.7442C132.708 17.5178 132.877 17.3438 133.099 17.375C133.284 17.4008 133.474 17.4573 133.639 17.5436C134.217 17.8448 134.673 18.2971 135.099 18.7811C135.682 19.4424 136.088 20.2091 136.436 21.0117C136.449 21.0422 136.458 21.0795 136.481 21.1003C136.519 21.1348 136.539 21.1033 136.593 21.1025C136.644 21.0835 136.681 21.1 136.684 21.0542C136.713 20.6392 136.715 20.2211 136.764 19.8087C136.891 18.7367 137.234 17.7363 137.841 16.8395C137.961 16.6625 138.136 16.5143 138.31 16.3846C138.486 16.2533 138.682 16.2857 138.82 16.4225C138.961 16.5621 138.997 16.7903 138.88 16.9635C138.816 17.0587 138.724 17.1572 138.622 17.2006C138.24 17.3632 137.986 17.6538 137.782 17.9961C137.342 18.7357 137.133 19.5452 137.084 20.4001C137.076 20.5386 137.079 20.6778 137.066 20.8158C137.049 20.9923 137.058 21.1396 137.221 21.2694C137.372 21.39 137.367 21.6543 137.257 21.8273C137.137 22.0176 137.137 22.0179 137.322 22.1537C137.344 22.1702 137.37 22.1825 137.408 22.2052C137.468 21.9601 137.52 21.7244 137.583 21.4914C138.133 19.4578 139.14 17.6853 140.633 16.2012C141.313 15.5261 142.083 14.9674 142.974 14.5987C143.481 14.3892 144.005 14.2405 144.56 14.2458C145.005 14.2498 145.239 14.4381 145.347 14.8713C145.517 15.5516 145.523 16.2422 145.411 16.9265C145.255 17.8746 145.209 18.8278 145.181 19.7851C145.163 20.3923 145.052 20.9846 144.736 21.5198C144.349 22.1746 143.758 22.5692 143.066 22.8323C142.843 22.9171 142.612 22.9808 142.385 23.0558C142.328 23.0745 142.274 23.1001 142.217 23.1557C142.296 23.1769 142.375 23.2029 142.456 23.2188C142.979 23.3222 143.485 23.4661 143.946 23.7514C144.805 24.2835 145.151 25.0617 145.035 26.046C144.922 27.0087 144.523 27.848 143.845 28.5433C143.556 28.8407 143.261 29.1395 142.934 29.3929C142.33 29.8609 141.745 29.8315 141.159 29.3365C140.686 28.9359 140.276 28.4723 139.923 27.964C139.446 27.2769 138.989 26.5757 138.523 25.8806C138.473 25.8062 138.421 25.7334 138.37 25.6601C138.356 25.6613 138.342 25.6629 138.328 25.6641C138.322 25.7245 138.31 25.7849 138.311 25.8448C138.323 26.5623 138.34 27.2798 138.349 27.9976C138.35 28.1111 138.327 28.2259 138.304 28.338C138.274 28.4876 138.2 28.6116 138.037 28.6413C137.881 28.6697 137.761 28.5861 137.688 28.4621C137.567 28.2567 137.447 28.0467 137.361 27.825C137.154 27.2896 136.968 26.7462 136.772 26.2065C136.744 26.1301 136.706 26.0577 136.673 25.9832C136.657 25.9855 136.641 25.988 136.625 25.9902C136.601 26.0847 136.572 26.1783 136.552 26.274C136.379 27.0981 136.225 27.9261 136.032 28.7454C135.88 29.3895 135.667 30.0167 135.309 30.5822C135.047 30.9968 134.688 31.2636 134.179 31.2469C133.982 31.2404 133.78 31.1935 133.593 31.1301C132.743 30.8428 131.932 30.4753 131.291 29.8246C130.876 29.4032 130.536 28.9268 130.361 28.3451C130.165 27.6928 130.28 27.0947 130.635 26.5324C130.905 26.1058 131.252 25.7533 131.669 25.4686C131.834 25.3559 131.993 25.234 132.154 25.1163C132.153 25.1025 132.151 25.0875 132.148 25.0728ZM137.351 21.4995C137.414 21.8244 137.162 22.1466 136.79 22.2192C136.417 22.2918 136.064 22.0874 136.001 21.7624C135.938 21.4375 136.189 21.1153 136.561 21.0427C136.934 20.9701 137.288 21.1745 137.351 21.4995Z" fill="url(#paint1_linear_4019_124)"/>
<path d="M32.218 20.3278C33.0065 16.6769 35.5283 14.3843 39.7099 14.3843C42.4429 14.3843 44.2647 15.3987 44.265 16.92C44.265 17.833 43.6577 18.4416 42.7466 18.4416C41.4983 18.4416 40.0813 15.3648 38.5629 15.3648C36.3022 15.3648 35.1552 18.4077 35.1552 23.0059H40.3173V24.6965H37.2282C36.0832 24.6965 35.1552 25.6264 35.1552 26.7738V39.9112H34.023C32.878 39.9112 31.9499 38.9812 31.9499 37.8338L31.9499 24.6965C31.9499 22.3811 31.8304 22.1226 32.218 20.3278Z" fill="url(#paint2_linear_4019_124)"/>
<path d="M54.779 35.6823C54.5941 35.6823 54.4319 35.7971 54.3611 35.9679C53.3916 38.2986 51.3662 39.8423 48.2551 39.8423C45.3593 39.8423 43.4175 36.6282 43.4175 32.8588V32.8316C43.4189 30.5448 45.271 28.6917 47.5557 28.6917H53.8664C54.9828 28.6917 55.7251 27.5293 55.2535 26.5167C54.0579 23.9496 51.7192 22.8951 48.7662 22.8951C43.5198 22.8951 40.0106 25.5548 40.0106 32.4429C40.0106 37.3531 43.2131 40.6269 47.9826 40.6269C51.1091 40.6269 53.8696 38.8566 55.0815 36.1536C55.1799 35.933 55.0204 35.6823 54.779 35.6823ZM48.7316 23.0316C49.2458 23.0316 49.7346 23.2006 50.1843 23.5721C52.1863 25.2265 50.9099 28.5116 48.3137 28.5269L43.5791 28.5545C44.1306 24.6116 46.0483 23.0316 48.7316 23.0316Z" fill="url(#paint3_linear_4019_124)"/>
<path d="M65.7742 23.0055C64.4703 23.0055 63.0503 23.7162 61.8179 24.9103C61.1649 25.5429 60.0721 25.0655 60.0721 24.1556V23.3437H58.9399C57.7949 23.3437 56.8669 24.2736 56.8669 25.421V40.2485H60.0721V28.2538C60.0721 27.831 60.193 27.4128 60.4404 27.0704C61.5501 25.5342 63.2337 24.5607 64.8631 24.5607C66.449 24.5607 67.2588 26.4202 67.2588 29.1927V40.2485H70.464V29.1927C70.464 25.4736 68.8782 23.0055 65.7742 23.0055Z" fill="url(#paint4_linear_4019_124)"/>
<path d="M89.844 30.252C88.9296 25.0578 84.8316 22.2115 79.5817 23.1391C74.3317 24.0664 71.452 28.146 72.3661 33.3402C73.2802 38.5348 77.3781 41.381 82.6284 40.4534C87.8788 39.5258 90.7578 35.4462 89.844 30.252ZM82.593 40.2534C79.4363 40.811 76.7453 37.7847 75.8551 32.7235C74.9645 27.6619 76.46 23.8961 79.6167 23.3384C82.7731 22.7808 85.4977 25.8009 86.3883 30.8625C87.2785 35.9234 85.7497 39.6954 82.593 40.2534Z" fill="url(#paint5_linear_4019_124)"/>
<path d="M99.9304 23.0055C98.766 23.0055 97.6715 23.4666 96.7742 24.2747C96.1022 24.8795 95.0381 24.4343 95.0381 23.5293V23.3437H93.9059C92.7613 23.3437 91.8329 24.2736 91.8329 25.421V40.2485H95.0381V28.3372C95.0381 27.1445 95.5294 25.9774 96.4588 25.2323C97.0489 24.759 97.7337 24.4932 98.4458 24.4932C99.1755 24.4932 99.6443 24.9505 99.6602 25.6409C99.6826 26.6324 100.375 27.4966 101.362 27.5634C102.615 27.6486 103.44 26.8876 103.44 25.6765C103.439 24.0874 102.022 23.0055 99.9304 23.0055Z" fill="url(#paint6_linear_4019_124)"/>
<path d="M107.65 13.64H107.21C107.21 15.4622 105.731 16.9444 103.912 16.9444V17.385C105.731 17.385 107.21 18.8671 107.21 20.6893H107.65C107.65 18.8671 109.129 17.385 110.947 17.385V16.9444C109.129 16.9444 107.65 15.4622 107.65 13.64Z" fill="url(#paint7_linear_4019_124)"/>
<path d="M49.2404 42.9486H48.8008C48.8008 44.7708 47.3217 46.253 45.5032 46.253V46.6936C47.3217 46.6936 48.8008 48.1757 48.8008 49.998H49.2404C49.2404 48.1757 50.7195 46.6936 52.538 46.6936V46.253C50.7195 46.253 49.2404 44.7708 49.2404 42.9486Z" fill="url(#paint8_linear_4019_124)"/>
<path d="M104.746 25.4208V40.2486H107.951V23.3435H106.819C105.674 23.3435 104.746 24.2734 104.746 25.4208Z" fill="url(#paint9_linear_4019_124)"/>
<path d="M123.396 40.3906C122.464 40.1427 121.847 38.2357 121.847 36.597V28.2798C121.847 24.6283 119.924 23.0056 117.056 23.0056C113.075 23.0056 110.443 26.2513 110.443 28.077C110.443 29.4293 111.219 30.3423 112.366 30.3423C113.344 30.3423 114.019 29.3957 114.019 28.7192C114.019 28.1445 113.344 27.3669 113.344 26.7582C113.344 25.5073 114.761 23.242 116.853 23.242C117.933 23.242 118.641 24.4254 118.641 27.0965V29.7731C118.641 30.6861 118.047 31.4938 117.179 31.769C111.238 33.6497 109.768 34.6063 109.768 37.2057C109.768 39.2342 111.286 40.5869 113.581 40.5869C114.74 40.5869 116.208 39.8979 118.024 38.1616C118.288 37.9092 118.732 38.0345 118.804 38.3929C119.072 39.7196 119.925 40.4179 120.937 40.4179H123.393C123.411 40.4176 123.413 40.3951 123.396 40.3906ZM118.642 36.597C118.642 37.1413 118.379 37.6544 117.939 37.9722C117.03 38.6276 116.124 38.8963 115.268 38.8963C113.885 38.8963 112.973 38.0847 112.973 36.8678C112.973 33.9855 113.842 33.0732 117.243 31.9054C117.928 31.6704 118.642 32.1751 118.642 32.9001V36.597Z" fill="url(#paint10_linear_4019_124)"/>
<defs>
<linearGradient id="paint0_linear_4019_124" x1="5" y1="27.499" x2="145.487" y2="27.499" gradientUnits="userSpaceOnUse">
<stop stop-color="#F04393"/>
<stop offset="1" stop-color="#F9C449"/>
</linearGradient>
<linearGradient id="paint1_linear_4019_124" x1="5" y1="27.499" x2="145.487" y2="27.499" gradientUnits="userSpaceOnUse">
<stop stop-color="#F04393"/>
<stop offset="1" stop-color="#F9C449"/>
</linearGradient>
<linearGradient id="paint2_linear_4019_124" x1="5" y1="27.499" x2="145.487" y2="27.499" gradientUnits="userSpaceOnUse">
<stop stop-color="#F04393"/>
<stop offset="1" stop-color="#F9C449"/>
</linearGradient>
<linearGradient id="paint3_linear_4019_124" x1="5" y1="27.499" x2="145.487" y2="27.499" gradientUnits="userSpaceOnUse">
<stop stop-color="#F04393"/>
<stop offset="1" stop-color="#F9C449"/>
</linearGradient>
<linearGradient id="paint4_linear_4019_124" x1="5" y1="27.499" x2="145.487" y2="27.499" gradientUnits="userSpaceOnUse">
<stop stop-color="#F04393"/>
<stop offset="1" stop-color="#F9C449"/>
</linearGradient>
<linearGradient id="paint5_linear_4019_124" x1="5" y1="27.499" x2="145.487" y2="27.499" gradientUnits="userSpaceOnUse">
<stop stop-color="#F04393"/>
<stop offset="1" stop-color="#F9C449"/>
</linearGradient>
<linearGradient id="paint6_linear_4019_124" x1="5" y1="27.499" x2="145.487" y2="27.499" gradientUnits="userSpaceOnUse">
<stop stop-color="#F04393"/>
<stop offset="1" stop-color="#F9C449"/>
</linearGradient>
<linearGradient id="paint7_linear_4019_124" x1="5" y1="27.499" x2="145.487" y2="27.499" gradientUnits="userSpaceOnUse">
<stop stop-color="#F04393"/>
<stop offset="1" stop-color="#F9C449"/>
</linearGradient>
<linearGradient id="paint8_linear_4019_124" x1="5" y1="27.499" x2="145.487" y2="27.499" gradientUnits="userSpaceOnUse">
<stop stop-color="#F04393"/>
<stop offset="1" stop-color="#F9C449"/>
</linearGradient>
<linearGradient id="paint9_linear_4019_124" x1="5" y1="27.499" x2="145.487" y2="27.499" gradientUnits="userSpaceOnUse">
<stop stop-color="#F04393"/>
<stop offset="1" stop-color="#F9C449"/>
</linearGradient>
<linearGradient id="paint10_linear_4019_124" x1="5" y1="27.499" x2="145.487" y2="27.499" gradientUnits="userSpaceOnUse">
<stop stop-color="#F04393"/>
<stop offset="1" stop-color="#F9C449"/>
</linearGradient>
</defs>
</svg>
