<svg width="153" height="55" viewBox="0 0 153 55" fill="none" xmlns="http://www.w3.org/2000/svg">
<path d="M11.8323 16.775C11.6624 16.7067 11.493 16.6375 11.3226 16.5703C10.6206 16.2939 9.98211 15.9235 9.49797 15.328C8.99278 14.7062 8.81702 13.9736 8.82479 13.1949C8.83249 12.4408 8.89386 11.6874 8.90025 10.9333C8.90478 10.4187 8.85151 9.90385 8.83123 9.38882C8.80671 8.76215 8.87936 8.14572 9.04827 7.54159C9.08384 7.41409 9.13354 7.28832 9.1936 7.17051C9.39494 6.77457 9.72217 6.62394 10.1926 6.69663C10.6936 6.7741 11.1573 6.96162 11.6041 7.18984C13.1544 7.98195 14.3273 9.1794 15.2339 10.6437C15.949 11.799 16.5145 13.0281 16.8519 14.3488C16.9854 14.8724 17.0519 15.4133 17.1491 15.9464C17.166 16.0384 17.1839 16.13 17.206 16.2455C17.3292 16.164 17.4293 16.0979 17.5573 16.0133C17.5143 15.9557 17.4748 15.9124 17.4468 15.8628C17.296 15.5954 17.3585 15.3137 17.6021 15.1254C17.644 15.0928 17.6966 15.0427 17.7011 14.9968C17.8068 13.865 17.7457 12.7546 17.2705 11.6977C17.054 11.2162 16.7649 10.8047 16.2805 10.5487C15.9839 10.3918 15.908 10.071 16.0694 9.798C16.1975 9.58095 16.4529 9.4942 16.6576 9.63739C16.828 9.75643 16.988 9.9084 17.1085 10.0773C17.5294 10.6673 17.7531 11.3451 17.9321 12.0397C18.1762 12.9884 18.1931 13.9528 18.1331 14.9228C18.1308 14.9597 18.1207 15.001 18.1331 15.0332C18.153 15.0865 18.189 15.0655 18.2429 15.092C18.3031 15.0989 18.3316 15.134 18.3578 15.0903C18.5961 14.6943 18.808 14.2811 19.0646 13.8977C19.7315 12.9013 20.5761 12.0844 21.6307 11.5038C21.8388 11.3892 22.0873 11.331 22.3248 11.2904C22.5654 11.2493 22.7436 11.3805 22.8115 11.5856C22.8812 11.7951 22.8019 12.0392 22.5984 12.1514C22.4866 12.2132 22.3462 12.2644 22.2229 12.2556C21.7622 12.2236 21.3633 12.3827 20.9887 12.6185C20.1794 13.1281 19.5638 13.8237 19.0845 14.6451C19.0068 14.7782 18.9387 14.917 18.8562 15.047C18.7506 15.2133 18.685 15.3634 18.7811 15.5742C18.8706 15.7702 18.7322 16.0292 18.5363 16.145C18.3205 16.2723 18.3205 16.2727 18.4354 16.5005C18.4494 16.5281 18.4685 16.5532 18.4954 16.5952C18.6783 16.3829 18.849 16.1761 19.0288 15.9772C20.5996 14.2424 22.492 12.997 24.7216 12.283C25.7357 11.9581 26.7809 11.7942 27.8512 11.8799C28.4595 11.9286 29.0541 12.0462 29.6021 12.3321C30.0408 12.5606 30.1785 12.8655 30.0672 13.3488C29.8928 14.108 29.5506 14.7945 29.0939 15.4149C28.4613 16.2746 27.935 17.1946 27.4243 18.1278C27.1003 18.7197 26.6912 19.2497 26.1079 19.6195C25.394 20.0721 24.6087 20.1639 23.7901 20.0748C23.5263 20.0461 23.2653 19.9925 23.0025 19.9521C22.9365 19.9418 22.8697 19.9396 22.785 19.9659C22.8532 20.027 22.9183 20.0925 22.9905 20.1492C23.4571 20.5158 23.8864 20.914 24.1994 21.4291C24.7827 22.3896 24.7338 23.3348 24.1227 24.2505C23.525 25.1461 22.7057 25.775 21.6833 26.1207C21.246 26.2687 20.8032 26.4155 20.3509 26.501C19.516 26.659 18.9506 26.3343 18.6195 25.5485C18.3518 24.9126 18.1795 24.2469 18.0855 23.5654C17.9588 22.6444 17.8592 21.7194 17.7478 20.7961C17.7359 20.6973 17.7206 20.5987 17.7066 20.5003C17.6922 20.4945 17.6775 20.4889 17.6632 20.4832C17.627 20.54 17.5846 20.5937 17.5555 20.6535C17.2058 21.3698 16.8604 22.0883 16.5074 22.8032C16.4517 22.9163 16.3706 23.0181 16.2915 23.1175C16.1859 23.2502 16.0503 23.3357 15.8736 23.2827C15.7043 23.2318 15.6274 23.0884 15.6175 22.9289C15.6012 22.6645 15.5881 22.396 15.6149 22.1332C15.6797 21.4989 15.7691 20.867 15.8463 20.2336C15.8573 20.144 15.8564 20.0532 15.8611 19.9628C15.8441 19.9569 15.8271 19.9514 15.8101 19.9455C15.738 20.0266 15.6624 20.1047 15.5942 20.1892C15.0075 20.9177 14.4367 21.659 13.8324 22.3725C13.3572 22.9333 12.8293 23.4462 12.1895 23.8251C11.7207 24.1031 11.2294 24.1854 10.7335 23.9119C10.5413 23.8059 10.3647 23.6574 10.2107 23.4999C9.51295 22.7862 8.89424 22.0128 8.58643 21.0448C8.38703 20.4179 8.29068 19.775 8.41059 19.1109C8.54498 18.3661 8.96077 17.8325 9.59643 17.4553C10.0786 17.1692 10.6012 16.9961 11.1581 16.9249C11.3784 16.8966 11.5975 16.8563 11.817 16.8215C11.8228 16.8072 11.8278 16.791 11.8323 16.775ZM18.7941 15.8677C18.6928 16.2211 18.2812 16.4131 17.8749 16.2966C17.4686 16.1801 17.2213 15.7991 17.3226 15.4457C17.424 15.0923 17.8356 14.9003 18.2419 15.0168C18.6481 15.1333 18.8955 15.5142 18.7941 15.8677Z" fill="url(#paint0_linear_523_102)"/>
<path d="M134.931 26.7518C134.767 26.7664 134.603 26.7801 134.438 26.7959C133.762 26.861 133.099 26.8249 132.467 26.5451C131.808 26.2528 131.367 25.737 131.055 25.1092C130.753 24.5011 130.494 23.8717 130.191 23.2641C129.985 22.8495 129.731 22.4582 129.505 22.0534C129.229 21.5607 129.035 21.0365 128.924 20.4829C128.9 20.3661 128.889 20.2449 128.889 20.1258C128.888 19.7259 129.089 19.4713 129.496 19.3374C129.93 19.1948 130.378 19.1556 130.83 19.1561C132.397 19.1579 133.828 19.639 135.154 20.4431C136.199 21.0776 137.155 21.8324 137.966 22.7539C138.287 23.1193 138.561 23.5261 138.857 23.914C138.908 23.9809 138.96 24.047 139.025 24.1306C139.091 24.0149 139.144 23.921 139.212 23.8007C139.154 23.7721 139.105 23.7536 139.062 23.7252C138.832 23.5724 138.767 23.3208 138.885 23.0702C138.905 23.027 138.927 22.9653 138.912 22.9266C138.534 21.9755 138.031 21.1097 137.218 20.4561C136.848 20.1584 136.447 19.9464 135.954 19.9391C135.652 19.9345 135.46 19.7082 135.478 19.4232C135.492 19.1967 135.662 19.0228 135.884 19.0539C136.07 19.0798 136.26 19.1363 136.426 19.2226C137.005 19.5238 137.461 19.9761 137.889 20.4601C138.472 21.1213 138.88 21.8881 139.228 22.6907C139.242 22.7212 139.25 22.7585 139.273 22.7792C139.311 22.8138 139.331 22.7823 139.385 22.7815C139.437 22.7625 139.474 22.779 139.477 22.7332C139.506 22.3182 139.507 21.9001 139.557 21.4876C139.684 20.4157 140.028 19.4153 140.636 18.5185C140.757 18.3415 140.932 18.1933 141.106 18.0636C141.282 17.9323 141.479 17.9647 141.617 18.1015C141.759 18.2411 141.795 18.4692 141.677 18.6425C141.613 18.7377 141.521 18.8362 141.419 18.8795C141.036 19.0422 140.781 19.3328 140.577 19.6751C140.136 20.4147 139.927 21.2242 139.878 22.0791C139.87 22.2176 139.872 22.3567 139.859 22.4947C139.842 22.6713 139.851 22.8186 140.014 22.9484C140.166 23.069 140.161 23.3333 140.051 23.5062C139.93 23.6966 139.93 23.6969 140.116 23.8327C140.138 23.8491 140.164 23.8615 140.202 23.8842C140.262 23.6391 140.315 23.4034 140.378 23.1704C140.929 21.1368 141.938 19.3643 143.434 17.8802C144.115 17.2051 144.886 16.6464 145.78 16.2777C146.288 16.0681 146.813 15.9195 147.369 15.9248C147.815 15.9288 148.05 16.1171 148.158 16.5503C148.328 17.2306 148.335 17.9211 148.222 18.6054C148.066 19.5536 148.02 20.5068 147.991 21.4641C147.973 22.0713 147.862 22.6636 147.545 23.1988C147.157 23.8535 146.565 24.2481 145.872 24.5113C145.648 24.5961 145.417 24.6598 145.19 24.7348C145.133 24.7535 145.078 24.779 145.021 24.8347C145.101 24.8559 145.18 24.8819 145.261 24.8978C145.785 25.0012 146.292 25.1451 146.754 25.4304C147.614 25.9625 147.961 26.7407 147.845 27.725C147.732 28.6877 147.332 29.527 146.653 30.2223C146.363 30.5197 146.067 30.8184 145.74 31.0719C145.134 31.5399 144.548 31.5105 143.961 31.0155C143.487 30.6149 143.076 30.1513 142.723 29.643C142.244 28.9559 141.786 28.2547 141.32 27.5596C141.27 27.4851 141.217 27.4124 141.166 27.3391C141.152 27.3403 141.138 27.3419 141.124 27.3431C141.118 27.4035 141.106 27.4639 141.107 27.5238C141.119 28.2413 141.136 28.9588 141.145 29.6766C141.147 29.7901 141.123 29.9049 141.1 30.0169C141.07 30.1665 140.996 30.2906 140.833 30.3203C140.676 30.3487 140.556 30.265 140.483 30.1411C140.361 29.9357 140.241 29.7256 140.155 29.5039C139.948 28.9686 139.761 28.4252 139.564 27.8855C139.537 27.8091 139.499 27.7367 139.466 27.6622C139.45 27.6645 139.434 27.667 139.418 27.6692C139.393 27.7637 139.364 27.8573 139.344 27.953C139.171 28.7771 139.016 29.6051 138.823 30.4244C138.671 31.0685 138.457 31.6957 138.099 32.2612C137.837 32.6758 137.476 32.9426 136.967 32.9259C136.769 32.9194 136.567 32.8725 136.379 32.809C135.527 32.5218 134.715 32.1542 134.072 31.5036C133.656 31.0822 133.316 30.6058 133.141 30.0241C132.944 29.3717 133.06 28.7737 133.415 28.2113C133.685 27.7847 134.034 27.4323 134.451 27.1476C134.617 27.0348 134.776 26.913 134.938 26.7953C134.936 26.7815 134.934 26.7664 134.931 26.7518ZM140.145 23.1784C140.208 23.5034 139.956 23.8256 139.583 23.8982C139.209 23.9708 138.855 23.7663 138.792 23.4414C138.729 23.1165 138.98 22.7943 139.354 22.7216C139.727 22.649 140.082 22.8535 140.145 23.1784Z" fill="url(#paint1_linear_523_102)"/>
<path d="M34.7974 20.3299C35.5875 16.679 38.1145 14.3863 42.3049 14.3863C45.0435 14.3863 46.8691 15.4007 46.8695 16.922C46.8695 17.835 46.2608 18.4437 45.3478 18.4437C44.0969 18.4437 42.6771 15.3668 41.1554 15.3668C38.8901 15.3668 37.7406 18.4097 37.7406 23.0079H42.9135V24.6985H39.818C38.6706 24.6985 37.7406 25.6285 37.7406 26.7758V39.9132H36.606C35.4587 39.9132 34.5287 38.9833 34.5287 37.8359L34.5287 24.6985C34.5287 22.3832 34.4089 22.1247 34.7974 20.3299Z" fill="url(#paint2_linear_523_102)"/>
<path d="M56.5659 35.6843C56.3806 35.6843 56.218 35.7992 56.1471 35.9699C55.1756 38.3007 53.1459 39.8444 50.0283 39.8444C47.1265 39.8444 45.1807 36.6302 45.1807 32.8609V32.8336C45.1821 30.5469 47.038 28.6938 49.3274 28.6938H55.6513C56.77 28.6938 57.5139 27.5314 57.0413 26.5188C55.8433 23.9516 53.4997 22.8971 50.5405 22.8971C45.2831 22.8971 41.7667 25.5568 41.7667 32.445C41.7667 37.3551 44.9759 40.629 49.7553 40.629C52.8883 40.629 55.6545 38.8587 56.8689 36.1557C56.9675 35.935 56.8078 35.6843 56.5659 35.6843ZM50.5059 23.0337C51.0212 23.0337 51.5109 23.2027 51.9615 23.5742C53.9678 25.2286 52.6887 28.5136 50.0871 28.529L45.3426 28.5566C45.8952 24.6137 47.8169 23.0337 50.5059 23.0337Z" fill="url(#paint3_linear_523_102)"/>
<path d="M68.4234 23.0075C67.1168 23.0075 65.6938 23.7183 64.4589 24.9124C63.8045 25.5449 62.7094 25.0675 62.7094 24.1576V23.3458H61.5748C60.4275 23.3458 59.4975 24.2757 59.4975 25.4231V40.2506H62.7094V28.2558C62.7094 27.8331 62.8306 27.4149 63.0785 27.0724C64.1905 25.5363 65.8776 24.5627 67.5104 24.5627C69.0996 24.5627 69.9111 26.4223 69.9111 29.1948V40.2506H73.123V29.1948C73.123 25.4757 71.5338 23.0075 68.4234 23.0075Z" fill="url(#paint4_linear_523_102)"/>
<path d="M92.5433 30.254C91.627 25.0598 87.5205 22.2136 82.2596 23.1412C76.9987 24.0684 74.113 28.1481 75.029 33.3423C75.945 38.5368 80.0515 41.383 85.3127 40.4554C90.574 39.5278 93.459 35.4482 92.5433 30.254ZM85.2772 40.2554C82.1139 40.8131 79.4174 37.7868 78.5253 32.7256C77.6328 27.664 79.1315 23.8981 82.2948 23.3405C85.4577 22.7828 88.188 25.803 89.0804 30.8646C89.9725 35.9254 88.4405 39.6974 85.2772 40.2554Z" fill="url(#paint5_linear_523_102)"/>
<path d="M102.651 23.0075C101.484 23.0075 100.387 23.4687 99.488 24.2767C98.8146 24.8816 97.7482 24.4363 97.7482 23.5313V23.3458H96.6137C95.4666 23.3458 94.5363 24.2757 94.5363 25.4231V40.2506H97.7482V28.3393C97.7482 27.1465 98.2405 25.9794 99.1719 25.2344C99.7632 24.7611 100.449 24.4952 101.163 24.4952C101.894 24.4952 102.364 24.9526 102.38 25.6429C102.402 26.6345 103.096 27.4986 104.085 27.5655C105.341 27.6506 106.167 26.8896 106.167 25.6786C106.167 24.0894 104.747 23.0075 102.651 23.0075Z" fill="url(#paint6_linear_523_102)"/>
<path d="M108.707 13.642H108.266C108.266 15.4643 106.784 16.9464 104.962 16.9464V17.387C106.784 17.387 108.266 18.8691 108.266 20.6914H108.707C108.707 18.8691 110.189 17.387 112.011 17.387V16.9464C110.189 16.9464 108.707 15.4643 108.707 13.642Z" fill="url(#paint7_linear_523_102)"/>
<path d="M50.1762 42.9506H49.7356C49.7356 44.7729 48.2535 46.255 46.4313 46.255V46.6956C48.2535 46.6956 49.7356 48.1777 49.7356 50H50.1762C50.1762 48.1777 51.6584 46.6956 53.4806 46.6956V46.255C51.6584 46.255 50.1762 44.7729 50.1762 42.9506Z" fill="url(#paint8_linear_523_102)"/>
<path d="M106.636 25.4228V40.2507H109.848V23.3455H108.714C107.566 23.3455 106.636 24.2755 106.636 25.4228Z" fill="url(#paint9_linear_523_102)"/>
<path d="M125.326 40.3926C124.392 40.1447 123.773 38.2377 123.773 36.5991V28.2819C123.773 24.6303 121.846 23.0076 118.972 23.0076C114.983 23.0076 112.345 26.2534 112.345 28.079C112.345 29.4313 113.123 30.3443 114.272 30.3443C115.253 30.3443 115.929 29.3977 115.929 28.7212C115.929 28.1465 115.253 27.3689 115.253 26.7603C115.253 25.5094 116.673 23.2441 118.769 23.2441C119.851 23.2441 120.561 24.4274 120.561 27.0985V29.7751C120.561 30.6881 119.966 31.4958 119.096 31.7711C113.142 33.6517 111.669 34.6083 111.669 37.2077C111.669 39.2362 113.191 40.5889 115.49 40.5889C116.652 40.5889 118.122 39.8999 119.942 38.1636C120.207 37.9113 120.652 38.0366 120.725 38.3949C120.993 39.7216 121.848 40.42 122.862 40.42H125.323C125.34 40.4196 125.343 40.3971 125.326 40.3926ZM120.562 36.5991C120.562 37.1433 120.299 37.6564 119.857 37.9743C118.946 38.6297 118.038 38.8983 117.181 38.8983C115.794 38.8983 114.881 38.0868 114.881 36.8698C114.881 33.9876 115.751 33.0753 119.16 31.9075C119.846 31.6724 120.562 32.1772 120.562 32.9022V36.5991Z" fill="url(#paint10_linear_523_102)"/>
<path d="M8.47434 15.096C8.30436 15.0277 8.13495 14.9585 7.96462 14.8913C7.26261 14.6149 6.62411 14.2445 6.13997 13.649C5.63477 13.0272 5.45902 12.2947 5.46679 11.5159C5.47449 10.7618 5.53586 10.0084 5.54224 9.25428C5.54677 8.73971 5.49351 8.22487 5.47323 7.70984C5.44871 7.08317 5.52136 6.46674 5.69027 5.86261C5.72583 5.73511 5.77553 5.60934 5.83559 5.49153C6.03693 5.09559 6.36417 4.94496 6.83458 5.01765C7.33555 5.09512 7.7993 5.28264 8.24607 5.51086C9.79636 6.30297 10.9693 7.50042 11.8759 8.96471C12.591 10.12 13.1565 11.3492 13.4939 12.6699C13.6274 13.1934 13.6939 13.7343 13.7911 14.2674C13.808 14.3594 13.8259 14.451 13.848 14.5665C13.9712 14.485 14.0713 14.419 14.1993 14.3343C14.1563 14.2767 14.1168 14.2335 14.0888 14.1838C13.938 13.9164 14.0005 13.6347 14.2441 13.4464C14.286 13.4139 14.3386 13.3638 14.3431 13.3178C14.4488 12.186 14.3877 11.0756 13.9125 10.0187C13.696 9.53719 13.4069 9.12568 12.9225 8.86971C12.6259 8.71282 12.55 8.39203 12.7114 8.11902C12.8395 7.90197 13.0949 7.81522 13.2996 7.95841C13.47 8.07745 13.63 8.22942 13.7505 8.39835C14.1714 8.98833 14.3951 9.66614 14.5741 10.3607C14.8182 11.3095 14.8351 12.2738 14.7751 13.2438C14.7728 13.2807 14.7627 13.3221 14.7751 13.3542C14.795 13.4075 14.831 13.3865 14.8849 13.413C14.9451 13.4199 14.9736 13.4551 14.9998 13.4113C15.2381 13.0154 15.45 12.6022 15.7066 12.2188C16.3735 11.2223 17.2181 10.4054 18.2726 9.82477C18.4808 9.71017 18.7293 9.65204 18.9668 9.61138C19.2074 9.57029 19.3856 9.70155 19.4535 9.90662C19.5232 10.1162 19.4439 10.3602 19.2404 10.4725C19.1286 10.5342 18.9882 10.5854 18.8649 10.5767C18.4041 10.5446 18.0053 10.7037 17.6307 10.9395C16.8214 11.4491 16.2058 12.1447 15.7265 12.9662C15.6488 13.0992 15.5807 13.238 15.4982 13.368C15.3926 13.5343 15.3269 13.6844 15.4231 13.8953C15.5126 14.0912 15.3742 14.3502 15.1783 14.466C14.9625 14.5934 14.9625 14.5937 15.0774 14.8215C15.0914 14.8492 15.1105 14.8743 15.1374 14.9162C15.3203 14.7039 15.491 14.4971 15.6708 14.2982C17.2416 12.5634 19.134 11.318 21.3636 10.604C22.3777 10.2791 23.4229 10.1152 24.4932 10.2009C25.1015 10.2496 25.6961 10.3672 26.2441 10.6531C26.6828 10.8817 26.8205 11.1866 26.7092 11.6698C26.5347 12.429 26.1926 13.1155 25.7359 13.7359C25.1033 14.5956 24.577 15.5156 24.0663 16.4488C23.7423 17.0407 23.3332 17.5707 22.7498 17.9406C22.036 18.3931 21.2507 18.4849 20.4321 18.3958C20.1683 18.3671 19.9073 18.3135 19.6445 18.2731C19.5785 18.2628 19.5117 18.2606 19.427 18.2869C19.4952 18.348 19.5603 18.4136 19.6325 18.4702C20.0991 18.8368 20.5284 19.235 20.8414 19.7501C21.4247 20.7106 21.3758 21.6559 20.7647 22.5715C20.167 23.4671 19.3477 24.096 18.3253 24.4417C17.888 24.5898 17.4452 24.7365 16.9929 24.822C16.158 24.9801 15.5926 24.6553 15.2615 23.8695C14.9938 23.2337 14.8215 22.5679 14.7275 21.8864C14.6008 20.9654 14.5012 20.0405 14.3898 19.1171C14.3779 19.0183 14.3625 18.9198 14.3485 18.8213C14.3342 18.8155 14.3195 18.81 14.3052 18.8042C14.269 18.861 14.2266 18.9147 14.1975 18.9745C13.8478 19.6908 13.5024 20.4093 13.1494 21.1243C13.0937 21.2373 13.0126 21.3391 12.9335 21.4385C12.8279 21.5712 12.6923 21.6568 12.5156 21.6038C12.3463 21.5529 12.2693 21.4094 12.2595 21.2499C12.2432 20.9855 12.2301 20.717 12.2569 20.4543C12.3217 19.8199 12.4111 19.188 12.4883 18.5546C12.4993 18.465 12.4984 18.3742 12.5031 18.2838C12.4861 18.2779 12.4691 18.2724 12.4521 18.2665C12.38 18.3476 12.3044 18.4257 12.2362 18.5103C11.6495 19.2387 11.0787 19.9801 10.4744 20.6935C9.99922 21.2544 9.47134 21.7672 8.83151 22.1462C8.36265 22.4241 7.87141 22.5065 7.37546 22.2329C7.18333 22.1269 7.00671 21.9785 6.85267 21.8209C6.15495 21.1073 5.53624 20.3338 5.22843 19.3658C5.02903 18.7389 4.93267 18.096 5.05259 17.4319C5.18698 16.6872 5.60276 16.1535 6.23842 15.7763C6.72059 15.4902 7.24319 15.3171 7.80008 15.2459C8.02039 15.2176 8.23948 15.1774 8.45901 15.1425C8.46478 15.1282 8.46976 15.112 8.47434 15.096ZM15.4361 14.1887C15.3348 14.5421 14.9232 14.7341 14.5169 14.6176C14.1106 14.5011 13.8633 14.1202 13.9646 13.7667C14.066 13.4133 14.4776 13.2213 14.8838 13.3378C15.2901 13.4544 15.5375 13.8353 15.4361 14.1887Z" fill="white"/>
<path d="M132.412 25.0728C132.248 25.0874 132.084 25.1011 131.92 25.1169C131.244 25.1821 130.58 25.146 129.948 24.8662C129.289 24.5738 128.849 24.058 128.537 23.4302C128.235 22.8221 127.976 22.1927 127.673 21.5851C127.466 21.1705 127.213 20.7793 126.986 20.3744C126.71 19.8817 126.517 19.3576 126.405 18.8039C126.382 18.6871 126.37 18.5659 126.37 18.4468C126.37 18.0469 126.571 17.7924 126.978 17.6584C127.411 17.5158 127.86 17.4767 128.312 17.4771C129.879 17.4789 131.309 17.96 132.635 18.7641C133.681 19.3986 134.637 20.1534 135.447 21.075C135.768 21.4404 136.043 21.8471 136.339 22.235C136.39 22.3019 136.442 22.368 136.507 22.4516C136.572 22.336 136.625 22.242 136.694 22.1218C136.636 22.0932 136.586 22.0746 136.543 22.0463C136.313 21.8934 136.248 21.6418 136.367 21.3913C136.387 21.348 136.409 21.2863 136.393 21.2476C136.016 20.2965 135.513 19.4307 134.7 18.7771C134.329 18.4794 133.929 18.2675 133.436 18.2601C133.134 18.2555 132.942 18.0292 132.96 17.7442C132.974 17.5178 133.143 17.3438 133.366 17.375C133.551 17.4008 133.742 17.4573 133.907 17.5436C134.486 17.8448 134.943 18.2971 135.37 18.7811C135.954 19.4424 136.361 20.2091 136.71 21.0117C136.723 21.0422 136.732 21.0795 136.755 21.1003C136.793 21.1348 136.813 21.1033 136.867 21.1025C136.918 21.0835 136.955 21.1 136.958 21.0542C136.988 20.6392 136.989 20.2211 137.038 19.8087C137.166 18.7367 137.509 17.7363 138.118 16.8395C138.238 16.6625 138.414 16.5143 138.587 16.3846C138.764 16.2533 138.96 16.2857 139.099 16.4225C139.24 16.5621 139.276 16.7903 139.159 16.9635C139.094 17.0587 139.003 17.1572 138.9 17.2006C138.518 17.3632 138.263 17.6538 138.059 17.9961C137.618 18.7357 137.408 19.5452 137.359 20.4001C137.351 20.5386 137.354 20.6777 137.34 20.8158C137.324 20.9923 137.332 21.1396 137.496 21.2694C137.648 21.39 137.642 21.6543 137.533 21.8273C137.412 22.0176 137.412 22.0179 137.597 22.1537C137.62 22.1702 137.645 22.1825 137.684 22.2052C137.744 21.9601 137.796 21.7244 137.859 21.4914C138.41 19.4578 139.419 17.6853 140.916 16.2012C141.597 15.5261 142.368 14.9674 143.262 14.5987C143.769 14.3892 144.294 14.2405 144.851 14.2458C145.296 14.2498 145.531 14.4381 145.64 14.8713C145.81 15.5516 145.816 16.2422 145.703 16.9265C145.547 17.8746 145.501 18.8278 145.473 19.7851C145.455 20.3923 145.343 20.9846 145.027 21.5198C144.639 22.1746 144.046 22.5692 143.353 22.8323C143.13 22.9171 142.899 22.9808 142.671 23.0558C142.614 23.0745 142.56 23.1001 142.503 23.1557C142.582 23.1769 142.661 23.2029 142.742 23.2188C143.266 23.3222 143.774 23.4661 144.235 23.7514C145.096 24.2835 145.443 25.0617 145.327 26.046C145.213 27.0087 144.813 27.848 144.134 28.5433C143.844 28.8407 143.549 29.1395 143.221 29.3929C142.616 29.8609 142.03 29.8315 141.443 29.3365C140.968 28.9359 140.558 28.4723 140.204 27.964C139.726 27.2769 139.268 26.5757 138.801 25.8806C138.751 25.8062 138.699 25.7334 138.647 25.6601C138.633 25.6613 138.619 25.6629 138.605 25.6641C138.6 25.7245 138.588 25.7849 138.589 25.8448C138.601 26.5623 138.618 27.2798 138.627 27.9976C138.628 28.1111 138.605 28.2259 138.582 28.338C138.551 28.4876 138.478 28.6116 138.314 28.6413C138.158 28.6697 138.037 28.5861 137.964 28.4621C137.843 28.2567 137.723 28.0467 137.637 27.825C137.43 27.2896 137.243 26.7462 137.046 26.2065C137.018 26.1301 136.98 26.0577 136.947 25.9832C136.931 25.9855 136.915 25.988 136.899 25.9902C136.874 26.0847 136.846 26.1783 136.826 26.274C136.653 27.0981 136.498 27.9261 136.305 28.7454C136.153 29.3895 135.939 30.0167 135.581 30.5822C135.318 30.9968 134.958 31.2636 134.448 31.2469C134.251 31.2404 134.048 31.1935 133.86 31.1301C133.009 30.8428 132.196 30.4753 131.554 29.8246C131.138 29.4032 130.798 28.9268 130.622 28.3451C130.426 27.6928 130.541 27.0947 130.897 26.5324C131.167 26.1058 131.515 25.7533 131.933 25.4686C132.098 25.3559 132.257 25.234 132.419 25.1163C132.418 25.1025 132.415 25.0875 132.412 25.0728ZM137.626 21.4995C137.689 21.8244 137.438 22.1466 137.064 22.2192C136.691 22.2918 136.336 22.0874 136.273 21.7624C136.21 21.4375 136.462 21.1153 136.835 21.0427C137.209 20.9701 137.563 21.1745 137.626 21.4995Z" fill="white"/>
<path d="M32.2747 20.3278C33.0648 16.6769 35.5919 14.3843 39.7822 14.3843C42.5208 14.3843 44.3465 15.3987 44.3468 16.92C44.3468 17.833 43.7381 18.4416 42.8251 18.4416C41.5742 18.4416 40.1544 15.3648 38.6327 15.3648C36.3674 15.3648 35.218 18.4077 35.218 23.0059H40.3909V24.6965H37.2953C36.1479 24.6965 35.218 25.6264 35.218 26.7738V39.9112H34.0834C32.936 39.9112 32.006 38.9812 32.006 37.8338L32.006 24.6965C32.006 22.3811 31.8862 22.1226 32.2747 20.3278Z" fill="white"/>
<path d="M54.8827 35.6823C54.6974 35.6823 54.5348 35.7971 54.4639 35.9679C53.4924 38.2986 51.4627 39.8423 48.3452 39.8423C45.4433 39.8423 43.4975 36.6282 43.4975 32.8588V32.8316C43.4989 30.5448 45.3549 28.6917 47.6443 28.6917H53.9682C55.0868 28.6917 55.8307 27.5293 55.3581 26.5167C54.1601 23.9496 51.8165 22.8951 48.8573 22.8951C43.6 22.8951 40.0835 25.5548 40.0835 32.4429C40.0835 37.3531 43.2927 40.6269 48.0721 40.6269C51.2051 40.6269 53.9713 38.8566 55.1858 36.1536C55.2843 35.933 55.1246 35.6823 54.8827 35.6823ZM48.8227 23.0316C49.338 23.0316 49.8277 23.2006 50.2783 23.5721C52.2846 25.2265 51.0055 28.5116 48.4039 28.5269L43.6594 28.5545C44.2121 24.6116 46.1337 23.0316 48.8227 23.0316Z" fill="white"/>
<path d="M65.9007 23.0055C64.5941 23.0055 63.1711 23.7162 61.9362 24.9103C61.2818 25.5429 60.1867 25.0655 60.1867 24.1556V23.3437H59.0522C57.9048 23.3437 56.9749 24.2736 56.9749 25.421V40.2485H60.1867V28.2538C60.1867 27.831 60.3079 27.4128 60.5558 27.0704C61.6679 25.5342 63.355 24.5607 64.9878 24.5607C66.5769 24.5607 67.3884 26.4202 67.3884 29.1927V40.2485H70.6003V29.1927C70.6003 25.4736 69.0112 23.0055 65.9007 23.0055Z" fill="white"/>
<path d="M90.0207 30.252C89.1043 25.0578 84.9978 22.2115 79.737 23.1391C74.4761 24.0664 71.5903 28.146 72.5064 33.3402C73.4224 38.5348 77.5288 41.381 82.7901 40.4534C88.0513 39.5258 90.9363 35.4462 90.0207 30.252ZM82.7546 40.2534C79.5913 40.811 76.8947 37.7847 76.0026 32.7235C75.1102 27.6619 76.6088 23.8961 79.7721 23.3384C82.935 22.7808 85.6653 25.8009 86.5577 30.8625C87.4498 35.9234 85.9178 39.6954 82.7546 40.2534Z" fill="white"/>
<path d="M100.128 23.0055C98.9613 23.0055 97.8644 23.4666 96.9653 24.2747C96.2919 24.8795 95.2255 24.4343 95.2255 23.5293V23.3437H94.091C92.944 23.3437 92.0137 24.2736 92.0137 25.421V40.2485H95.2255V28.3372C95.2255 27.1445 95.7179 25.9774 96.6492 25.2323C97.2405 24.759 97.9268 24.4932 98.6403 24.4932C99.3715 24.4932 99.8413 24.9505 99.8573 25.6409C99.8798 26.6324 100.573 27.4966 101.563 27.5634C102.818 27.6486 103.645 26.8876 103.645 25.6765C103.644 24.0874 102.224 23.0055 100.128 23.0055Z" fill="white"/>
<path d="M107.863 13.64H107.423C107.423 15.4622 105.941 16.9444 104.118 16.9444V17.385C105.941 17.385 107.423 18.8671 107.423 20.6893H107.863C107.863 18.8671 109.345 17.385 111.168 17.385V16.9444C109.345 16.9444 107.863 15.4622 107.863 13.64Z" fill="white"/>
<path d="M49.3325 42.9486H48.892C48.892 44.7708 47.4098 46.253 45.5876 46.253V46.6936C47.4098 46.6936 48.892 48.1757 48.892 49.998H49.3325C49.3325 48.1757 50.8147 46.6936 52.6369 46.6936V46.253C50.8147 46.253 49.3325 44.7708 49.3325 42.9486Z" fill="white"/>
<path d="M104.953 25.4208V40.2486H108.165V23.3435H107.031C105.883 23.3435 104.953 24.2734 104.953 25.4208Z" fill="white"/>
<path d="M123.643 40.3906C122.709 40.1427 122.09 38.2357 122.09 36.597V28.2798C122.09 24.6283 120.163 23.0056 117.289 23.0056C113.3 23.0056 110.662 26.2513 110.662 28.077C110.662 29.4293 111.44 30.3423 112.589 30.3423C113.57 30.3423 114.246 29.3957 114.246 28.7192C114.246 28.1445 113.57 27.3669 113.57 26.7582C113.57 25.5073 114.99 23.242 117.086 23.242C118.168 23.242 118.878 24.4254 118.878 27.0965V29.7731C118.878 30.6861 118.283 31.4938 117.412 31.769C111.459 33.6497 109.986 34.6063 109.986 37.2057C109.986 39.2342 111.508 40.5869 113.807 40.5869C114.968 40.5869 116.439 39.8979 118.259 38.1616C118.523 37.9092 118.969 38.0345 119.041 38.3929C119.31 39.7196 120.165 40.4179 121.179 40.4179H123.64C123.657 40.4176 123.66 40.3951 123.643 40.3906ZM118.878 36.597C118.879 37.1413 118.616 37.6544 118.174 37.9722C117.263 38.6276 116.355 38.8963 115.497 38.8963C114.111 38.8963 113.198 38.0847 113.198 36.8678C113.198 33.9855 114.068 33.0732 117.477 31.9054C118.163 31.6704 118.878 32.1751 118.878 32.9001V36.597Z" fill="white"/>
<defs>
<linearGradient id="paint0_linear_523_102" x1="5" y1="50.271" x2="932.683" y2="50.271" gradientUnits="userSpaceOnUse">
<stop stop-color="#F04393"/>
<stop offset="1" stop-color="#F9C449"/>
</linearGradient>
<linearGradient id="paint1_linear_523_102" x1="-891.079" y1="46.744" x2="148.298" y2="46.744" gradientUnits="userSpaceOnUse">
<stop stop-color="#F04393"/>
<stop offset="1" stop-color="#F9C449"/>
</linearGradient>
<linearGradient id="paint2_linear_523_102" x1="-37.5804" y1="25.2703" x2="184.529" y2="25.2703" gradientUnits="userSpaceOnUse">
<stop stop-color="#F04393"/>
<stop offset="1" stop-color="#F9C449"/>
</linearGradient>
<linearGradient id="paint3_linear_523_102" x1="-37.5804" y1="25.2703" x2="184.529" y2="25.2703" gradientUnits="userSpaceOnUse">
<stop stop-color="#F04393"/>
<stop offset="1" stop-color="#F9C449"/>
</linearGradient>
<linearGradient id="paint4_linear_523_102" x1="-37.5804" y1="25.2703" x2="184.529" y2="25.2703" gradientUnits="userSpaceOnUse">
<stop stop-color="#F04393"/>
<stop offset="1" stop-color="#F9C449"/>
</linearGradient>
<linearGradient id="paint5_linear_523_102" x1="-37.5804" y1="25.2703" x2="184.529" y2="25.2703" gradientUnits="userSpaceOnUse">
<stop stop-color="#F04393"/>
<stop offset="1" stop-color="#F9C449"/>
</linearGradient>
<linearGradient id="paint6_linear_523_102" x1="-37.5804" y1="25.2703" x2="184.529" y2="25.2703" gradientUnits="userSpaceOnUse">
<stop stop-color="#F04393"/>
<stop offset="1" stop-color="#F9C449"/>
</linearGradient>
<linearGradient id="paint7_linear_523_102" x1="-37.5804" y1="25.2703" x2="184.529" y2="25.2703" gradientUnits="userSpaceOnUse">
<stop stop-color="#F04393"/>
<stop offset="1" stop-color="#F9C449"/>
</linearGradient>
<linearGradient id="paint8_linear_523_102" x1="-37.5804" y1="25.2703" x2="184.529" y2="25.2703" gradientUnits="userSpaceOnUse">
<stop stop-color="#F04393"/>
<stop offset="1" stop-color="#F9C449"/>
</linearGradient>
<linearGradient id="paint9_linear_523_102" x1="-37.5804" y1="25.2703" x2="184.529" y2="25.2703" gradientUnits="userSpaceOnUse">
<stop stop-color="#F04393"/>
<stop offset="1" stop-color="#F9C449"/>
</linearGradient>
<linearGradient id="paint10_linear_523_102" x1="-37.5804" y1="25.2703" x2="184.529" y2="25.2703" gradientUnits="userSpaceOnUse">
<stop stop-color="#F04393"/>
<stop offset="1" stop-color="#F9C449"/>
</linearGradient>
</defs>
</svg>
