<svg width="20" height="20" viewBox="0 0 20 20" fill="none" xmlns="http://www.w3.org/2000/svg">
<g clip-path="url(#clip0_370_208)">
<path d="M10.0084 0C4.49006 0 0.0167236 4.47333 0.0167236 9.99167C0.0167236 14.2267 2.64839 17.845 6.36506 19.3008C6.27422 18.5117 6.20089 17.2942 6.39756 16.4308C6.57839 15.6492 7.56506 11.4633 7.56506 11.4633C7.56506 11.4633 7.26922 10.8633 7.26922 9.98333C7.26922 8.59333 8.07506 7.5575 9.07839 7.5575C9.93339 7.5575 10.3451 8.19917 10.3451 8.96417C10.3451 9.81917 9.80256 11.1025 9.51422 12.295C9.27589 13.29 10.0159 14.1042 10.9942 14.1042C12.7709 14.1042 14.1359 12.2292 14.1359 9.53167C14.1359 7.13833 12.4176 5.46917 9.95839 5.46917C7.11339 5.46917 5.44339 7.59917 5.44339 9.80333C5.44339 10.6583 5.77256 11.58 6.18339 12.0817C6.26672 12.1792 6.27506 12.27 6.25006 12.3683C6.17589 12.6808 6.00339 13.3633 5.97006 13.5033C5.92922 13.6842 5.82172 13.725 5.63256 13.635C4.38256 13.0508 3.60089 11.2333 3.60089 9.76167C3.60089 6.61167 5.88672 3.7175 10.2042 3.7175C13.6667 3.7175 16.3634 6.185 16.3634 9.49083C16.3634 12.9367 14.1926 15.7083 11.1826 15.7083C10.1709 15.7083 9.21672 15.1817 8.89672 14.5567C8.89672 14.5567 8.39506 16.4642 8.27172 16.9333C8.05006 17.805 7.44089 18.8908 7.03006 19.5567C7.96839 19.8433 8.95589 20 9.99172 20C15.5101 20 19.9834 15.5267 19.9834 10.0083C20.0001 4.47333 15.5267 0 10.0084 0Z" fill="white"/>
</g>
<defs>
<clipPath id="clip0_370_208">
<rect width="20" height="20" fill="white"/>
</clipPath>
</defs>
</svg>
