<svg width="20" height="20" viewBox="0 0 20 20" fill="none" xmlns="http://www.w3.org/2000/svg">
<path d="M18.7209 8.22167C16.9384 8.22167 15.2859 7.65167 13.9376 6.68333V13.6708C13.9376 17.1608 11.0984 19.9992 7.60922 19.9992C6.26088 19.9992 5.01005 19.5742 3.98255 18.8525C2.35088 17.7067 1.28088 15.8117 1.28088 13.6708C1.28088 10.1808 4.12005 7.34167 7.61005 7.34167C7.90005 7.34167 8.18338 7.36583 8.46255 7.40333V8.2175V10.9133C8.19255 10.8292 7.90755 10.78 7.61005 10.78C6.01672 10.78 4.72005 12.0767 4.72005 13.6708C4.72005 14.7808 5.35005 15.745 6.27005 16.2292C6.67088 16.44 7.12672 16.5608 7.61088 16.5608C9.16755 16.5608 10.4376 15.3225 10.4959 13.7792L10.4984 0H13.9367C13.9367 0.298333 13.9659 0.589167 14.0175 0.8725C14.26 2.1825 15.0375 3.30667 16.115 4.00917C16.865 4.49833 17.76 4.78417 18.7201 4.78417L18.7209 8.22167Z" fill="white"/>
</svg>
