<svg width="425" height="651" viewBox="0 0 425 651" fill="none" xmlns="http://www.w3.org/2000/svg">
<path d="M77.2779 481.378C75.7621 481.952 74.48 481.796 73.198 481.491C65.0169 479.565 56.8428 477.618 48.6617 475.692C47.6913 475.466 46.7067 475.246 45.7151 475.154C44.7801 475.062 44.2418 475.593 44.2418 476.514C44.2418 477.123 44.3551 477.739 44.4684 478.34C45.9772 486.214 47.5 494.088 49.0159 501.961C51.1692 513.17 53.2233 524.399 54.6682 535.721C55.7732 544.367 56.7861 553.026 57.6078 561.7C58.6065 572.221 59.3786 582.757 60.2002 593.293C60.4552 596.6 60.5969 599.92 60.6961 603.234C60.9156 610.563 61.0927 617.891 61.2627 625.219C61.4186 632.087 61.5461 638.949 61.6877 645.817C61.7019 646.588 61.7161 647.36 61.6877 648.132C61.6594 648.826 61.5036 649.484 60.7315 650.03C60.604 649.739 60.4198 649.506 60.3986 649.258C60.3065 648.259 60.2357 647.261 60.2144 646.256C60.1082 641.087 59.9736 635.918 59.9311 630.749C59.8602 621.792 59.3078 612.864 58.6207 603.942C58.2524 599.099 57.9407 594.242 57.5086 589.406C57.0199 583.954 56.4532 578.502 55.8441 573.064C55.2137 567.393 54.5337 561.728 53.8112 556.064C53.0391 550.024 52.2033 543.984 51.3533 537.952C50.5317 532.146 49.7171 526.347 48.7892 520.562C47.6771 513.637 46.473 506.726 45.2688 499.809C44.3834 494.718 43.4201 489.648 42.5418 484.557C42.2372 482.815 42.0247 481.045 41.8689 479.282C41.628 476.5 40.4026 474.297 38.1856 472.612C37.881 472.379 37.5977 472.11 37.2931 471.876C37.1727 471.784 37.0169 471.741 36.7406 471.607C36.5919 471.918 36.3794 472.216 36.3157 472.541C35.9473 474.368 35.8977 476.195 36.0465 478.064C36.4502 482.985 36.8186 487.913 37.024 492.841C37.1656 496.226 37.109 499.632 36.9531 503.016C36.7335 507.725 36.6911 512.419 36.9673 517.128C37.1798 520.746 37.364 524.371 37.5127 527.989C37.8952 537.47 38.2777 546.951 38.5964 556.439C39.3048 577.341 38.9364 598.257 39.1064 619.165C39.1702 627.032 39.5456 634.898 39.7723 642.765C39.8219 644.464 39.8997 646.156 39.8785 647.856C39.8714 648.613 39.7014 649.385 39.4889 650.122C39.3331 650.674 38.8231 650.985 38.2494 651C37.6544 651.014 37.2294 650.631 36.9956 650.122C36.8398 649.782 36.769 649.385 36.7477 649.01C36.6911 648.012 36.6698 647.006 36.6627 646.001C36.4573 626.402 36.2661 606.81 36.0536 587.211C35.9898 581.504 35.9332 575.79 35.8198 570.083C35.4727 552.495 35.1328 534.907 34.729 517.319C34.5165 507.987 34.2049 498.655 33.8719 489.322C33.6949 484.309 33.369 479.311 32.6182 474.34C32.1861 471.472 31.3786 468.76 29.9195 466.275C28.6658 464.151 27.3766 462.034 25.8891 460.073C17.8993 449.593 13.111 437.804 11.1348 424.812C10.1786 418.538 9.82442 412.251 10.1432 405.899C10.554 397.636 11.8219 389.487 13.2952 381.365C15.236 370.667 17.2264 359.982 19.1884 349.29C21.1363 338.677 23.1196 328.063 24.9967 317.435C26.392 309.533 28.0283 301.688 29.8274 293.878C29.9832 293.205 30.1533 292.526 30.3799 291.874C30.4295 291.726 30.7411 291.577 30.9324 291.584C31.1236 291.591 31.3928 291.747 31.4707 291.91C31.5982 292.172 31.6265 292.497 31.6407 292.795C31.8815 297.043 31.6903 301.256 30.9253 305.462C29.3812 314.036 27.9999 322.639 26.5408 331.228C26.1795 333.359 25.7475 335.469 25.3863 337.6C25.2588 338.358 25.1596 339.13 25.1667 339.895C25.1738 340.907 25.6838 341.417 26.7108 341.573C27.0862 341.629 27.4829 341.636 27.8654 341.615C31.7966 341.389 35.7277 341.197 39.6518 340.907C41.4155 340.78 43.1863 340.553 44.9146 340.185C50.6096 338.953 56.347 338.535 62.1623 338.854C67.8714 339.165 73.5238 339.93 79.1762 340.73C82.7674 341.24 86.3515 341.877 89.9639 342.068C92.6626 342.217 95.333 342.557 98.0246 342.684C100.433 342.798 102.742 343.435 105.087 343.838C107.743 344.292 110.371 344.922 113.069 345.134C113.679 345.184 114.295 345.339 114.868 345.545C121.343 347.832 128.008 349.474 134.56 351.5C137.506 352.413 140.474 353.248 143.435 354.098C144.533 354.41 145.645 354.778 146.8 354.226C146.835 353.192 146.403 352.378 145.914 351.592C138.505 339.675 133.844 326.647 130.303 313.165C127.54 302.644 125.238 292.023 123.482 281.289C122.426 274.817 121.541 268.324 120.953 261.789C120.103 252.344 119.21 242.898 118.361 233.446C117.064 218.98 116.583 204.493 117.107 189.978C117.369 182.65 117.539 175.328 117.808 168C118.113 159.673 118.276 151.34 119.041 143.041C119.203 141.278 119.161 139.494 119.196 137.724C119.203 137.448 119.133 137.164 119.076 136.683C117.496 137.355 116.207 138.156 114.925 138.963C113.884 139.621 112.814 140.23 111.738 140.818C109.776 141.88 107.785 142.9 105.809 143.94C105.398 144.153 104.994 144.394 104.562 144.542C99.0021 146.433 93.7605 149.074 88.4269 151.495C80.1395 155.262 71.8167 158.916 63.1964 161.868C53.9812 165.019 44.5959 167.476 34.9769 168.998C26.1937 170.393 17.3468 171.009 8.45027 170.669C6.7503 170.606 5.05741 170.542 3.35744 170.471C2.18871 170.422 1.07665 170.195 0 169.466C0.679989 168.382 1.55829 167.781 2.76952 167.568C5.51072 167.094 8.25901 166.782 11.0498 166.74C15.0589 166.676 19.0751 166.619 23.0771 166.4C34.0915 165.805 44.7872 163.631 55.1216 159.751C72.3763 153.273 89.4681 146.397 106.354 139.012C125.862 130.48 140.63 116.751 150.894 98.1718C155.455 89.9088 158.126 81.0085 159.103 71.6056C159.741 65.4455 159.875 59.2854 159.394 53.1183C158.969 47.7158 157.956 42.4125 156.036 37.3286C155.2 35.1053 154.109 32.9529 152.976 30.857C148.443 22.4383 143.846 14.0478 139.277 5.65027C138.98 5.11215 138.682 4.55987 138.47 3.98635C137.96 2.63396 137.946 1.29574 138.711 0.0353995C140.007 0.0353995 140.765 0.743455 141.388 1.68517C143.088 4.26249 144.887 6.77608 146.474 9.41712C149.456 14.3735 152.31 19.4078 155.25 24.3925C157.488 28.1806 159.783 31.9262 162.043 35.693C166.597 43.2763 172.15 50.0665 178.327 56.3824C185.566 63.7886 193.251 70.6922 201.397 77.0859C202.856 78.233 204.379 79.2879 206.072 80.0597C209.84 81.7803 213.658 81.9219 217.533 80.4279C219.346 79.734 221.025 78.7923 222.576 77.6311C237.975 66.1252 251.405 52.7359 261.852 36.5002C266.407 29.4267 270.494 22.0771 274.751 14.8267C277.209 10.635 279.766 6.50702 282.28 2.34366C283.038 1.0904 284.058 0.226577 285.624 0C286.339 1.18953 286.389 2.3649 285.772 3.65356C284.242 6.85397 282.804 10.0969 281.303 13.3114C279.759 16.5968 277.96 19.7335 275.905 22.7356C270.373 30.8145 266.768 39.6794 265.224 49.3514C264.19 55.8655 264.161 62.4079 264.87 68.9645C265.613 75.8964 267.108 82.6583 269.453 89.222C274.276 102.689 282.337 113.891 293.174 123.159C299.124 128.25 305.697 132.413 312.518 136.223C322.23 141.653 332.323 146.263 342.629 150.412C351.214 153.867 359.863 157.153 368.639 160.077C377.075 162.881 385.716 164.8 394.535 165.968C401.59 166.903 408.659 167.412 415.771 167.306C418.738 167.264 421.593 167.887 424.462 168.467C424.603 168.496 424.717 168.623 425 168.807C424.929 169.161 424.844 169.586 424.738 170.096C424.015 170.188 423.335 170.315 422.648 170.344C413.617 170.691 404.593 170.79 395.576 169.954C387.487 169.204 379.59 167.469 371.791 165.217C357.079 160.969 342.891 155.411 329.214 148.536C326.997 147.424 324.716 146.553 322.315 145.916C319.304 145.123 316.542 143.841 314.126 141.802C312.051 140.046 309.558 138.949 307.135 137.752C306.668 137.518 306.094 137.504 305.641 137.398C304.947 137.674 304.862 138.241 304.869 138.772C304.89 140.237 304.94 141.703 305.053 143.162C305.457 148.472 305.882 153.775 306.307 159.079C306.696 163.922 307.079 168.765 307.511 173.608C308.212 181.538 308.346 189.468 307.829 197.42C307.61 200.804 307.482 204.203 307.312 207.587C306.944 214.831 306.654 222.074 306.193 229.318C305.697 237.248 305.124 245.171 304.082 253.052C302.786 262.837 301.568 272.636 300.116 282.393C299.195 288.568 297.842 294.671 296.794 300.831C295.802 306.637 293.819 312.153 292.197 317.782C290.745 322.816 289.229 327.836 287.692 332.849C287.331 334.018 286.87 335.179 286.311 336.269C283.477 341.835 280.594 347.379 277.747 352.937C277.407 353.595 276.869 354.204 276.989 355.196C277.527 355.096 278.045 355.054 278.533 354.905C287.699 352.179 296.872 349.496 306.009 346.685C309.593 345.587 313.227 345.12 316.938 345.085C319.418 345.056 321.833 344.695 324.227 343.987C327.103 343.13 330.071 342.635 333.06 342.281C338.5 341.629 343.925 340.914 349.358 340.234C356.718 339.314 364.106 338.705 371.529 339.109C375.297 339.314 379.058 339.767 382.819 340.185C386.956 340.645 391.086 341.219 395.222 341.714C395.987 341.806 396.766 341.82 397.531 341.778C398.558 341.714 399.083 341.176 399.083 340.135C399.075 339.215 398.976 338.287 398.82 337.374C398.332 334.485 397.786 331.61 397.276 328.721C395.598 319.078 393.919 309.427 392.247 299.776C391.794 297.163 392.035 294.544 392.261 291.931C392.276 291.754 392.552 291.428 392.644 291.449C392.899 291.513 393.253 291.662 393.338 291.867C394.323 294.381 395.229 296.916 395.668 299.599C397.687 312.004 399.727 324.402 401.767 336.807C403.403 346.777 405.557 356.647 407.866 366.482C409.799 374.745 411.485 383.05 412.619 391.469C413.886 400.901 414.219 410.374 413.589 419.876C412.583 435.036 407.065 448.475 397.97 460.533C397.227 461.517 396.469 462.494 395.775 463.514C392.729 467.96 391.206 472.888 391.057 478.284C390.668 491.935 390.214 505.586 389.796 519.231C389.612 525.171 389.435 531.105 389.308 537.045C389.074 548.155 388.868 559.264 388.663 570.373C388.366 586.262 388.04 602.158 387.82 618.047C387.693 627.379 387.714 636.718 387.735 646.057C387.735 647.693 387.282 649.081 386.311 650.348C386.184 650.518 385.95 650.61 385.738 650.766C384.619 649.47 384.102 648.047 384.109 646.326C384.179 628.965 384.094 611.603 384.264 594.242C384.378 582.516 384.732 570.791 385.136 559.073C385.575 546.349 386.29 533.64 386.694 520.916C387.041 510.04 387.147 499.164 387.282 488.282C387.324 485.032 387.629 481.817 387.983 478.595C388.146 477.137 388.309 475.685 388.444 474.227C388.486 473.773 388.465 473.299 388.401 472.853C388.337 472.407 388.167 471.982 388.047 471.536C386.942 471.338 386.106 471.671 385.539 472.478C384.08 474.574 382.798 476.747 382.359 479.339C381.431 484.812 380.354 490.257 379.455 495.737C377.599 507.073 375.743 518.416 374.043 529.774C372.535 539.842 371.16 549.925 369.878 560.022C369.184 565.452 368.759 570.919 368.299 576.371C367.697 583.522 367.144 590.673 366.641 597.825C366.231 603.673 365.919 609.529 365.558 615.377C365.147 621.998 364.658 628.618 364.346 635.245C364.155 639.324 364.247 643.423 364.205 647.509C364.198 648.344 364.304 649.194 364.099 649.945C363.496 650.313 363.001 650.2 362.923 649.661C362.774 648.677 362.739 647.665 362.753 646.666C362.788 643.813 362.859 640.959 362.93 638.106C363.178 627.613 363.376 617.126 363.709 606.633C363.957 598.766 364.283 590.9 364.779 583.048C365.324 574.423 366.167 565.828 367.336 557.26C368.844 546.179 370.395 535.112 371.961 524.038C373.073 516.172 374.128 508.298 375.417 500.467C376.537 493.698 377.953 486.979 379.235 480.238C379.42 479.254 379.667 478.277 379.759 477.278C379.859 476.146 379.214 475.558 378.067 475.636C377.535 475.671 377.004 475.813 376.48 475.926C368.278 477.746 360.068 479.558 351.866 481.392C350.421 481.718 348.99 481.98 347.531 481.505C347.297 481.024 347.651 480.826 347.956 480.599C348.905 479.905 349.939 479.466 351.101 479.218C355.924 478.199 360.748 477.144 365.565 476.061C368.951 475.303 372.294 474.361 375.524 473.073C384.024 469.702 390.738 464.087 396.015 456.681C399.982 451.109 402.865 444.977 405.294 438.619C409.679 427.148 411.669 415.274 410.869 403.01C410.586 398.713 410.047 394.408 409.289 390.159C407.731 381.351 405.974 372.585 404.26 363.806C403.772 361.313 403.141 358.842 402.61 356.357C402.164 354.247 401.668 352.137 401.37 350.006C400.945 346.94 399.253 345.106 396.292 344.454C394.11 343.973 391.907 343.527 389.697 343.265C383.252 342.507 376.777 342.21 370.282 342.528C365.579 342.762 360.876 342.932 356.179 343.244C351.795 343.534 347.41 343.966 343.033 344.341C342.417 344.391 341.808 344.497 341.191 344.504C336.779 344.568 332.451 345.318 328.13 346.118C326.472 346.423 324.772 346.494 323.094 346.685C322.173 346.791 321.231 346.826 320.345 347.053C317.286 347.825 314.24 348.681 311.187 349.482C307.985 350.324 304.762 351.089 301.568 351.967C296.142 353.461 290.716 354.941 285.326 356.569C283.123 357.235 280.97 358.141 278.887 359.125C273.618 361.618 269.311 365.264 266.031 370.129C262.575 375.262 258.672 380.034 254.259 384.389C246.333 392.199 237.21 398.082 226.663 401.715C224.694 402.395 222.725 403.067 220.741 403.704C215.613 405.361 210.478 405.446 205.243 404.087C195.249 401.502 186.154 397.091 177.874 390.974C170.543 385.557 164.409 378.979 159.167 371.552C158.055 369.973 156.95 368.394 155.753 366.879C154.797 365.668 153.755 364.521 152.672 363.43C150.065 360.796 146.92 359.076 143.35 358.084C135.403 355.875 127.47 353.624 119.529 351.379C117.078 350.685 114.635 350.027 112.085 349.786C111.029 349.687 110.009 349.248 108.975 348.958C107.566 348.561 106.17 348.122 104.754 347.775C103.868 347.556 102.947 347.471 102.034 347.329C101.885 347.308 101.715 347.357 101.573 347.308C98.9738 346.501 96.2538 346.458 93.5976 346.062C90.9272 345.665 88.2427 345.403 85.5581 345.099C82.8807 344.794 80.2032 344.454 77.5187 344.242C74.3667 343.987 71.2005 343.838 68.0414 343.676C63.0335 343.414 58.0257 343.137 53.0108 342.925C49.4621 342.776 45.9134 342.691 42.3647 342.663C37.711 342.628 33.1565 343.506 28.5878 344.263C27.2633 344.483 26.1158 345.106 25.0958 345.97C24.1821 346.741 23.5942 347.683 23.3321 348.873C20.9451 359.713 18.4518 370.532 16.171 381.394C14.3931 389.862 13.4085 398.451 13.3377 407.117C13.2173 421.724 16.1355 435.616 23.2683 448.489C25.9741 453.367 29.1829 457.885 32.859 462.076C37.1161 466.934 42.386 470.339 48.3075 472.811C52.8833 474.715 57.6503 475.976 62.4881 476.974C66.2635 477.753 70.0459 478.496 73.8213 479.282C75.4433 479.643 75.7196 479.849 77.2779 481.378ZM129.524 132.073C129.021 132.477 128.766 132.633 128.582 132.845C127.994 133.518 127.873 134.36 127.795 135.217C127.385 139.982 126.981 144.748 127.066 149.534C127.271 161.408 127.413 173.289 127.675 185.163C127.866 193.646 128.327 202.114 129.262 210.554C130.296 219.915 131.797 229.19 134.022 238.345C136.848 249.979 140.496 261.343 145.532 272.233C150.221 282.379 156.093 291.754 163.587 300.088C169.402 306.552 175.869 312.231 183.462 316.55C195.971 323.666 209.323 325.854 223.44 323.177C231.664 321.62 239.136 318.2 245.979 313.406C252.927 308.542 258.849 302.601 264.119 295.995C271.393 286.875 276.918 276.75 281.267 265.967C290.036 244.236 294.584 221.572 296.064 198.255C296.801 186.7 296.957 175.13 296.865 163.561C296.808 155.538 296.695 147.516 296.61 139.494C296.603 138.488 296.688 137.476 296.574 136.485C296.411 135.111 296.121 133.759 295.831 132.406C295.788 132.201 295.427 132.003 295.172 131.932C295.058 131.903 294.747 132.165 294.704 132.335C294.52 133.079 294.322 133.836 294.279 134.594C293.932 140.216 293.691 145.838 293.273 151.453C292.877 156.834 292.48 162.229 291.772 167.575C290.299 178.699 287.486 189.504 283.329 199.94C280.559 206.886 277.697 213.797 274.85 220.708C273.228 224.652 271.089 228.312 268.518 231.704C261.392 241.1 252.453 248.286 241.821 253.363C234.858 256.691 227.506 258.652 219.835 259.304C210.924 260.054 202.105 259.332 193.443 257.038C181.479 253.873 171.003 248.074 162.326 239.188C156.78 233.509 152.466 226.953 148.889 219.893C144.384 211 140.878 201.696 137.939 192.18C134.376 180.653 132.024 168.878 130.834 156.869C130.204 150.497 129.977 144.096 130.076 137.688C130.112 135.932 129.949 134.183 129.524 132.073ZM122.178 135.323C122.178 135.847 122.1 136.4 122.193 136.917C122.525 138.842 122.313 140.761 122.207 142.687C121.683 152.395 121.222 162.102 121.442 171.831C121.704 183.478 121.987 195.126 122.327 206.766C122.653 217.791 123.05 228.815 123.439 239.839C123.56 243.231 123.708 246.622 123.9 250.014C124.041 252.556 124.176 255.105 124.48 257.626C125.125 263.064 125.805 268.494 126.591 273.911C127.498 280.17 128.624 286.387 130.055 292.554C132.966 305.044 136.94 317.194 141.664 329.111C143.626 334.053 145.638 338.981 147.834 343.824C152.402 353.886 159.762 361.087 170.082 365.264C174.148 366.914 178.15 368.769 182.053 370.78C189.32 374.526 196.488 378.455 203.699 382.3C204.854 382.916 206.015 383.539 207.212 384.063C210.563 385.522 213.956 385.522 217.327 384.127C218.319 383.716 219.289 383.235 220.245 382.725C232.974 375.949 245.688 369.144 258.785 363.083C260.181 362.439 261.526 361.667 262.837 360.853C268.305 357.461 272.357 352.838 274.836 346.862C277.818 339.668 280.864 332.502 283.782 325.287C287.897 315.134 291.439 304.782 293.982 294.105C295.788 286.521 297.268 278.881 298.31 271.164C299.082 265.436 299.691 259.679 300.222 253.923C300.697 248.775 301.03 243.62 301.313 238.459C301.795 229.523 302.297 220.587 302.581 211.645C303.147 193.518 302.68 175.385 302.467 157.259C302.404 151.779 302.191 146.305 302.17 140.832C302.163 138.658 301.384 136.775 300.527 134.877C300.47 134.743 300.335 134.552 300.229 134.545C299.96 134.53 299.521 134.523 299.436 134.672C299.266 134.991 299.209 135.408 299.216 135.777C299.308 140.4 299.294 145.038 299.563 149.654C300.024 157.592 300.491 165.515 300.378 173.473C300.265 181.113 299.889 188.739 299.478 196.365C299.06 204.068 298.77 211.772 297.991 219.454C297.389 225.367 296.553 231.236 295.413 237.071C293.798 245.334 291.29 253.349 288.662 261.336C283.024 278.45 273.979 293.552 261.973 306.928C257.085 312.372 251.695 317.187 245.008 320.31C239.066 323.085 232.981 325.528 226.67 327.334C219.828 329.295 212.914 329.819 205.838 328.551C198.826 327.298 192.026 325.358 185.346 322.944C182.074 321.761 178.922 320.331 175.883 318.632C170.507 315.629 165.74 311.884 161.887 307.048C157.361 301.376 153.033 295.563 149.08 289.474C144.2 281.94 139.986 274.067 137.011 265.577C135.353 260.847 133.781 256.089 132.35 251.289C130.104 243.741 128.341 236.08 127.413 228.248C126.889 223.809 126.492 219.348 126.003 214.909C124.856 204.472 124.225 194.007 124.247 183.499C124.268 173.473 124.325 163.44 124.374 153.414C124.381 152.26 124.445 151.099 124.509 149.945C124.75 145.399 125.005 140.853 125.238 136.308C125.267 135.72 125.182 135.125 125.153 134.587C123.893 134.113 123.078 134.658 122.178 135.323ZM161.554 43.3967C160.718 44.218 160.846 44.9898 160.952 45.7474C161.278 48.1902 161.653 50.633 161.929 53.0828C162.786 60.7086 162.709 68.3343 161.653 75.9318C160.144 86.7579 156.574 96.876 151.035 106.3C150.724 106.831 150.363 107.348 150.129 107.908C149.116 110.315 148.953 112.666 150.589 114.924C152.169 117.112 153.649 119.371 155.236 121.559C158.926 126.643 163.636 130.572 169.168 133.511C171.003 134.488 172.887 135.394 174.793 136.216C179.758 138.361 184.943 139.876 190.135 141.342C196.446 143.126 202.792 144.712 209.366 145.243C214.657 145.668 219.842 145.215 224.949 143.799C228.143 142.914 231.324 141.993 234.518 141.101C239.866 139.607 245.171 137.979 250.292 135.805C254.854 133.865 259.203 131.564 263.12 128.498C267.37 125.163 270.784 121.141 273.327 116.369C275.055 113.133 275.183 109.904 273.426 106.647C272.838 105.564 272.258 104.473 271.663 103.397C265.309 91.8134 262.065 79.4083 261.732 66.2173C261.611 61.3458 262.086 56.5098 262.49 51.6667C262.681 49.3585 262.886 47.0573 263.078 44.7491C263.12 44.2109 263.148 43.6657 262.412 43.5029C261.781 44.3525 261.186 45.2305 260.507 46.0377C258.821 48.0486 257.092 50.017 255.378 52.0066C250.703 57.4516 245.965 62.8398 240.794 67.8316C235.892 72.5614 230.722 76.9514 224.821 80.3925C222.498 81.752 220.068 82.9557 217.618 84.0744C213.736 85.8516 209.826 85.6604 205.987 83.8407C205.498 83.6071 205.024 83.3522 204.542 83.1115C198.387 79.9818 192.763 76.0663 187.556 71.5489C178.674 63.8311 170.783 55.1716 163.537 45.9173C162.914 45.1314 162.305 44.3525 161.554 43.3967ZM288.528 125.51C288.372 125.935 288.244 126.197 288.181 126.473C287.713 128.576 287.231 130.686 286.806 132.796C285.709 138.234 284.752 143.707 283.527 149.116C280.148 163.985 272.038 175.718 259.671 184.562C255.01 187.889 250.038 190.679 244.824 193.037C234.051 197.915 222.774 200.379 210.924 200.125C206.518 200.025 202.148 199.537 197.827 198.716C188.194 196.889 179.05 193.717 170.713 188.498C153.061 177.467 142.259 161.741 138.555 141.221C138.052 138.418 137.719 135.578 137.216 132.774C136.826 130.572 136.288 128.399 135.828 126.211C135.736 125.779 135.481 125.531 135.084 125.439C134.624 125.333 134.354 125.623 134.192 125.991C133.157 128.328 132.237 130.686 132.492 133.341C132.676 135.26 132.69 137.193 132.902 139.104C133.554 145.003 134.191 150.908 134.964 156.799C135.551 161.309 136.146 165.826 137.074 170.273C139.745 183.06 143.74 195.451 148.854 207.467C152.006 214.873 155.852 221.897 160.761 228.305C166.363 235.612 173.008 241.779 181.026 246.346C193.988 253.724 207.956 255.884 222.604 253.668C235.864 251.664 247.091 245.575 256.547 236.143C261.441 231.265 265.528 225.763 269.035 219.83C273.993 211.439 277.96 202.581 281.225 193.405C284.653 183.783 286.87 173.863 288.11 163.731C288.747 158.526 289.349 153.322 289.994 148.118C290.582 143.374 291.219 138.637 291.779 133.886C291.928 132.668 292.034 131.408 291.899 130.197C291.68 128.108 290.624 126.508 288.528 125.51ZM145.298 114.429C143.867 116.213 142.344 118.04 140.892 119.93C139.872 121.254 139.383 122.777 139.582 124.483C139.723 125.708 139.808 126.94 139.922 128.165C140.63 135.897 142.429 143.374 145.546 150.49C154.265 170.393 168.609 184.278 189.441 191.139C196.58 193.49 203.933 194.779 211.399 195.458C212.468 195.558 213.559 195.543 214.629 195.437C220.394 194.857 226.089 193.88 231.649 192.251C253.218 185.935 268.673 172.56 277.889 152.055C280.97 145.194 282.804 137.957 284.058 130.558C284.405 128.498 284.632 126.437 284.533 124.349C284.349 120.568 282.62 117.594 279.759 115.2C279.525 115.002 279.256 114.832 278.987 114.691C278.292 114.33 277.648 114.443 277.138 115.087C276.762 115.569 276.38 116.086 276.175 116.652C275.799 117.657 275.459 118.691 275.275 119.746C274.836 122.239 273.865 124.483 272.258 126.409C271.273 127.584 270.182 128.703 269.013 129.694C262.603 135.097 255.562 139.48 247.849 142.793C236.856 147.516 225.36 149.732 213.417 149.824C205.201 149.888 197.112 149.046 189.129 147.056C177.187 144.075 166.541 138.51 156.858 131.011C155.583 130.027 154.393 128.908 153.267 127.747C150.625 125.007 148.988 121.743 148.379 117.976C148.315 117.594 148.344 117.183 148.195 116.843C147.671 115.632 147.147 114.379 145.298 114.429ZM261.463 366.645C260.705 366.178 260.046 366.326 259.387 366.595C258.459 366.978 257.539 367.36 256.618 367.764C243.967 373.343 231.706 379.624 220.43 387.688C220.054 387.957 219.672 388.219 219.268 388.439C216.626 389.904 213.835 390.513 210.811 390.096C208.48 389.777 206.327 388.998 204.308 387.823C201.978 386.463 199.676 385.054 197.374 383.652C193.62 381.365 189.908 379.015 186.126 376.784C179.142 372.656 171.669 369.541 164.281 366.241C164.118 366.17 163.884 366.234 163.672 366.234C163.339 367.664 163.976 368.684 164.784 369.661C168.906 374.667 173.248 379.468 178.086 383.801C182.18 387.462 186.544 390.761 191.367 393.395C195.766 395.795 200.242 398.04 205.109 399.371C208.509 400.306 211.923 400.476 215.408 399.817C223.886 398.231 231.572 394.825 238.605 389.89C247.417 383.716 254.514 375.814 261.137 367.445C261.314 367.225 261.364 366.907 261.463 366.645Z" fill="black"/>
<path d="M185.144 129.55C184.026 129.55 182.938 129.376 181.88 129.029C180.837 128.681 179.984 128.213 179.319 127.624L180.361 125.834C180.89 126.332 181.578 126.74 182.424 127.058C183.27 127.375 184.177 127.533 185.144 127.533C186.323 127.533 187.237 127.284 187.887 126.786C188.551 126.272 188.884 125.585 188.884 124.724C188.884 123.893 188.567 123.228 187.932 122.73C187.312 122.216 186.323 121.96 184.963 121.96H183.693V120.374L188.408 114.573L188.725 115.479H180.044V113.508H190.516V115.049L185.824 120.827L184.645 120.124H185.393C187.312 120.124 188.748 120.555 189.7 121.416C190.667 122.277 191.15 123.372 191.15 124.701C191.15 125.592 190.931 126.408 190.493 127.148C190.055 127.888 189.39 128.477 188.499 128.915C187.622 129.338 186.504 129.55 185.144 129.55Z" fill="black"/>
<path d="M202.014 129.55C200.775 129.55 199.664 129.233 198.682 128.598C197.715 127.964 196.944 127.042 196.37 125.834C195.811 124.626 195.531 123.16 195.531 121.438C195.531 119.716 195.811 118.251 196.37 117.043C196.944 115.834 197.715 114.913 198.682 114.279C199.664 113.644 200.775 113.327 202.014 113.327C203.238 113.327 204.341 113.644 205.323 114.279C206.305 114.913 207.076 115.834 207.635 117.043C208.194 118.251 208.474 119.716 208.474 121.438C208.474 123.16 208.194 124.626 207.635 125.834C207.076 127.042 206.305 127.964 205.323 128.598C204.341 129.233 203.238 129.55 202.014 129.55ZM202.014 127.533C202.845 127.533 203.57 127.307 204.19 126.854C204.824 126.4 205.315 125.721 205.663 124.814C206.026 123.908 206.207 122.783 206.207 121.438C206.207 120.094 206.026 118.969 205.663 118.062C205.315 117.156 204.824 116.476 204.19 116.023C203.57 115.57 202.845 115.343 202.014 115.343C201.183 115.343 200.45 115.57 199.815 116.023C199.18 116.476 198.682 117.156 198.319 118.062C197.971 118.969 197.798 120.094 197.798 121.438C197.798 122.783 197.971 123.908 198.319 124.814C198.682 125.721 199.18 126.4 199.815 126.854C200.45 127.307 201.183 127.533 202.014 127.533Z" fill="black"/>
<path d="M219.172 129.505C217.948 129.505 216.852 129.24 215.885 128.712C214.933 128.183 214.185 127.458 213.641 126.536C213.097 125.615 212.825 124.558 212.825 123.364C212.825 122.171 213.097 121.114 213.641 120.192C214.185 119.271 214.933 118.553 215.885 118.04C216.852 117.511 217.948 117.247 219.172 117.247C220.26 117.247 221.227 117.466 222.073 117.904C222.934 118.327 223.599 118.961 224.068 119.807L222.413 120.872C222.02 120.283 221.537 119.852 220.962 119.58C220.403 119.293 219.799 119.15 219.149 119.15C218.363 119.15 217.661 119.324 217.041 119.671C216.422 120.019 215.931 120.509 215.568 121.144C215.205 121.763 215.024 122.503 215.024 123.364C215.024 124.225 215.205 124.973 215.568 125.607C215.931 126.242 216.422 126.733 217.041 127.08C217.661 127.428 218.363 127.601 219.149 127.601C219.799 127.601 220.403 127.465 220.962 127.193C221.537 126.906 222.02 126.468 222.413 125.879L224.068 126.922C223.599 127.752 222.934 128.394 222.073 128.848C221.227 129.286 220.26 129.505 219.172 129.505Z" fill="black"/>
<path d="M229.152 129.369V117.36H231.396L236.563 126.242H235.657L240.961 117.36H243.001V129.369H241.029V119.807L241.391 120.011L236.541 128.009H235.589L230.716 119.852L231.146 119.762V129.369H229.152Z" fill="black"/>
<path d="M180.067 175.743V174.157L188.181 163.78H190.629L182.583 174.157L181.427 173.795H194.097V175.743H180.067ZM188.884 179.641V175.743L188.952 173.795V170.351H191.082V179.641H188.884Z" fill="black"/>
<path d="M204.205 179.822C202.966 179.822 201.855 179.505 200.873 178.87C199.906 178.236 199.135 177.314 198.561 176.106C198.002 174.897 197.722 173.432 197.722 171.71C197.722 169.988 198.002 168.523 198.561 167.315C199.135 166.106 199.906 165.185 200.873 164.55C201.855 163.916 202.966 163.599 204.205 163.599C205.429 163.599 206.532 163.916 207.514 164.55C208.497 165.185 209.267 166.106 209.826 167.315C210.385 168.523 210.665 169.988 210.665 171.71C210.665 173.432 210.385 174.897 209.826 176.106C209.267 177.314 208.497 178.236 207.514 178.87C206.532 179.505 205.429 179.822 204.205 179.822ZM204.205 177.805C205.036 177.805 205.761 177.579 206.381 177.125C207.016 176.672 207.507 175.993 207.854 175.086C208.217 174.18 208.398 173.055 208.398 171.71C208.398 170.366 208.217 169.241 207.854 168.334C207.507 167.428 207.016 166.748 206.381 166.295C205.761 165.842 205.036 165.615 204.205 165.615C203.374 165.615 202.641 165.842 202.006 166.295C201.372 166.748 200.873 167.428 200.51 168.334C200.163 169.241 199.989 170.366 199.989 171.71C199.989 173.055 200.163 174.18 200.51 175.086C200.873 175.993 201.372 176.672 202.006 177.125C202.641 177.579 203.374 177.805 204.205 177.805Z" fill="black"/>
<path d="M221.363 179.776C220.139 179.776 219.044 179.512 218.077 178.983C217.125 178.455 216.377 177.73 215.833 176.808C215.289 175.887 215.017 174.83 215.017 173.636C215.017 172.443 215.289 171.386 215.833 170.464C216.377 169.543 217.125 168.825 218.077 168.312C219.044 167.783 220.139 167.519 221.363 167.519C222.451 167.519 223.418 167.738 224.265 168.176C225.126 168.599 225.791 169.233 226.259 170.079L224.604 171.144C224.212 170.555 223.728 170.124 223.154 169.852C222.595 169.565 221.99 169.422 221.341 169.422C220.555 169.422 219.852 169.596 219.233 169.943C218.613 170.29 218.122 170.781 217.759 171.416C217.397 172.035 217.215 172.775 217.215 173.636C217.215 174.497 217.397 175.245 217.759 175.879C218.122 176.514 218.613 177.005 219.233 177.352C219.852 177.699 220.555 177.873 221.341 177.873C221.99 177.873 222.595 177.737 223.154 177.465C223.728 177.178 224.212 176.74 224.604 176.151L226.259 177.193C225.791 178.024 225.126 178.666 224.265 179.119C223.418 179.557 222.451 179.776 221.363 179.776Z" fill="black"/>
<path d="M231.343 179.641V167.632H233.587L238.755 176.514H237.848L243.152 167.632H245.192V179.641H243.22V170.079L243.583 170.283L238.732 178.281H237.78L232.907 170.124L233.338 170.034V179.641H231.343Z" fill="black"/>
<path d="M185.416 235.05C184.298 235.05 183.21 234.876 182.152 234.529C181.109 234.181 180.256 233.713 179.591 233.124L180.633 231.334C181.162 231.833 181.85 232.24 182.696 232.558C183.542 232.875 184.441 233.033 185.393 233.033C186.602 233.033 187.531 232.777 188.181 232.263C188.831 231.75 189.156 231.062 189.156 230.201C189.156 229.612 189.012 229.099 188.725 228.661C188.438 228.222 187.939 227.89 187.229 227.664C186.534 227.422 185.575 227.301 184.351 227.301H180.747L181.585 219.008H190.538V220.98H182.424L183.603 219.869L182.945 226.417L181.767 225.33H184.827C186.413 225.33 187.69 225.534 188.657 225.942C189.624 226.349 190.327 226.916 190.765 227.641C191.203 228.351 191.422 229.174 191.422 230.111C191.422 231.017 191.203 231.848 190.765 232.603C190.327 233.343 189.662 233.94 188.771 234.393C187.894 234.831 186.776 235.05 185.416 235.05Z" fill="black"/>
<path d="M202.058 235.05C200.819 235.05 199.708 234.733 198.726 234.098C197.759 233.464 196.988 232.543 196.414 231.334C195.855 230.126 195.575 228.661 195.575 226.939C195.575 225.217 195.855 223.751 196.414 222.543C196.988 221.335 197.759 220.413 198.726 219.779C199.708 219.144 200.819 218.827 202.058 218.827C203.282 218.827 204.385 219.144 205.367 219.779C206.349 220.413 207.12 221.335 207.679 222.543C208.238 223.751 208.518 225.217 208.518 226.939C208.518 228.661 208.238 230.126 207.679 231.334C207.12 232.543 206.349 233.464 205.367 234.098C204.385 234.733 203.282 235.05 202.058 235.05ZM202.058 233.033C202.889 233.033 203.614 232.807 204.234 232.354C204.869 231.901 205.36 231.221 205.707 230.315C206.07 229.408 206.251 228.283 206.251 226.939C206.251 225.594 206.07 224.469 205.707 223.563C205.36 222.656 204.869 221.977 204.234 221.523C203.614 221.07 202.889 220.844 202.058 220.844C201.227 220.844 200.494 221.07 199.859 221.523C199.225 221.977 198.726 222.656 198.363 223.563C198.016 224.469 197.842 225.594 197.842 226.939C197.842 228.283 198.016 229.408 198.363 230.315C198.726 231.221 199.225 231.901 199.859 232.354C200.494 232.807 201.227 233.033 202.058 233.033Z" fill="black"/>
<path d="M219.216 235.005C217.992 235.005 216.897 234.74 215.93 234.212C214.978 233.683 214.23 232.958 213.686 232.037C213.142 231.115 212.87 230.058 212.87 228.864C212.87 227.671 213.142 226.614 213.686 225.692C214.23 224.771 214.978 224.053 215.93 223.54C216.897 223.011 217.992 222.747 219.216 222.747C220.304 222.747 221.271 222.966 222.117 223.404C222.979 223.827 223.644 224.461 224.112 225.307L222.457 226.372C222.065 225.783 221.581 225.353 221.007 225.081C220.448 224.794 219.843 224.65 219.193 224.65C218.408 224.65 217.705 224.824 217.085 225.171C216.466 225.519 215.975 226.01 215.612 226.644C215.25 227.263 215.068 228.003 215.068 228.864C215.068 229.725 215.25 230.473 215.612 231.108C215.975 231.742 216.466 232.233 217.085 232.58C217.705 232.928 218.408 233.101 219.193 233.101C219.843 233.101 220.448 232.966 221.007 232.694C221.581 232.407 222.065 231.969 222.457 231.379L224.112 232.422C223.644 233.253 222.979 233.894 222.117 234.348C221.271 234.786 220.304 235.005 219.216 235.005Z" fill="black"/>
<path d="M229.196 234.869V222.86H231.44L236.608 231.742H235.701L241.005 222.86H243.045V234.869H241.073V225.307L241.436 225.511L236.585 233.509H235.633L230.76 225.353L231.19 225.262V234.869H229.196Z" fill="black"/>
<path d="M186.957 299.483C185.552 299.483 184.351 299.173 183.353 298.554C182.356 297.935 181.593 297.043 181.064 295.88C180.55 294.702 180.293 293.267 180.293 291.575C180.293 289.778 180.611 288.26 181.245 287.021C181.88 285.783 182.764 284.846 183.897 284.212C185.031 283.577 186.33 283.26 187.796 283.26C188.551 283.26 189.269 283.336 189.949 283.487C190.644 283.638 191.241 283.872 191.74 284.189L190.878 285.956C190.471 285.669 190.002 285.473 189.473 285.367C188.959 285.261 188.415 285.209 187.841 285.209C186.224 285.209 184.94 285.715 183.988 286.727C183.036 287.724 182.56 289.211 182.56 291.19C182.56 291.507 182.575 291.885 182.605 292.323C182.635 292.761 182.711 293.192 182.832 293.615L182.061 292.844C182.288 292.149 182.643 291.568 183.127 291.1C183.625 290.616 184.215 290.261 184.895 290.035C185.59 289.793 186.338 289.672 187.139 289.672C188.196 289.672 189.133 289.869 189.949 290.261C190.765 290.654 191.407 291.213 191.876 291.938C192.344 292.648 192.578 293.494 192.578 294.476C192.578 295.488 192.329 296.371 191.83 297.127C191.332 297.882 190.659 298.463 189.813 298.871C188.967 299.279 188.015 299.483 186.957 299.483ZM186.867 297.648C187.562 297.648 188.166 297.519 188.68 297.263C189.209 297.006 189.624 296.651 189.926 296.198C190.229 295.729 190.38 295.186 190.38 294.566C190.38 293.63 190.055 292.89 189.405 292.346C188.755 291.787 187.871 291.507 186.753 291.507C186.028 291.507 185.393 291.643 184.849 291.915C184.305 292.187 183.875 292.557 183.557 293.026C183.255 293.479 183.104 294 183.104 294.589C183.104 295.133 183.247 295.639 183.535 296.107C183.822 296.56 184.245 296.93 184.804 297.217C185.363 297.504 186.051 297.648 186.867 297.648Z" fill="black"/>
<path d="M203.032 299.483C201.793 299.483 200.682 299.166 199.7 298.531C198.733 297.897 197.962 296.976 197.388 295.767C196.829 294.559 196.549 293.094 196.549 291.372C196.549 289.65 196.829 288.184 197.388 286.976C197.962 285.768 198.733 284.846 199.7 284.212C200.682 283.577 201.793 283.26 203.032 283.26C204.256 283.26 205.359 283.577 206.341 284.212C207.323 284.846 208.094 285.768 208.653 286.976C209.212 288.184 209.492 289.65 209.492 291.372C209.492 293.094 209.212 294.559 208.653 295.767C208.094 296.976 207.323 297.897 206.341 298.531C205.359 299.166 204.256 299.483 203.032 299.483ZM203.032 297.466C203.863 297.466 204.588 297.24 205.208 296.787C205.842 296.334 206.334 295.654 206.681 294.748C207.044 293.841 207.225 292.716 207.225 291.372C207.225 290.027 207.044 288.902 206.681 287.996C206.334 287.089 205.842 286.409 205.208 285.956C204.588 285.503 203.863 285.277 203.032 285.277C202.201 285.277 201.468 285.503 200.833 285.956C200.199 286.409 199.7 287.089 199.337 287.996C198.99 288.902 198.816 290.027 198.816 291.372C198.816 292.716 198.99 293.841 199.337 294.748C199.7 295.654 200.199 296.334 200.833 296.787C201.468 297.24 202.201 297.466 203.032 297.466Z" fill="black"/>
<path d="M220.19 299.438C218.966 299.438 217.871 299.173 216.903 298.645C215.951 298.116 215.203 297.391 214.659 296.47C214.115 295.548 213.844 294.491 213.844 293.297C213.844 292.104 214.115 291.047 214.659 290.125C215.203 289.204 215.951 288.486 216.903 287.973C217.871 287.444 218.966 287.18 220.19 287.18C221.278 287.18 222.245 287.399 223.091 287.837C223.953 288.26 224.618 288.894 225.086 289.74L223.431 290.805C223.038 290.216 222.555 289.785 221.981 289.514C221.422 289.227 220.817 289.083 220.167 289.083C219.382 289.083 218.679 289.257 218.059 289.604C217.44 289.952 216.949 290.443 216.586 291.077C216.223 291.696 216.042 292.436 216.042 293.297C216.042 294.158 216.223 294.906 216.586 295.541C216.949 296.175 217.44 296.666 218.059 297.013C218.679 297.361 219.382 297.534 220.167 297.534C220.817 297.534 221.422 297.398 221.981 297.127C222.555 296.84 223.038 296.402 223.431 295.812L225.086 296.855C224.618 297.685 223.953 298.327 223.091 298.781C222.245 299.219 221.278 299.438 220.19 299.438Z" fill="black"/>
<path d="M230.17 299.302V287.293H232.414L237.582 296.175H236.675L241.979 287.293H244.019V299.302H242.047V289.74L242.41 289.944L237.559 297.942H236.607L231.734 289.785L232.164 289.695V299.302H230.17Z" fill="black"/>
<path d="M184.453 367.275L191.184 352.366L191.774 353.386H182.345L183.478 352.276V356.218H181.302V351.415H193.27V352.955L186.855 367.275H184.453Z" fill="black"/>
<path d="M203.563 367.456C202.324 367.456 201.213 367.139 200.231 366.505C199.264 365.87 198.493 364.949 197.919 363.74C197.36 362.532 197.081 361.067 197.081 359.345C197.081 357.623 197.36 356.158 197.919 354.949C198.493 353.741 199.264 352.819 200.231 352.185C201.213 351.55 202.324 351.233 203.563 351.233C204.787 351.233 205.89 351.55 206.872 352.185C207.855 352.819 208.625 353.741 209.184 354.949C209.743 356.158 210.023 357.623 210.023 359.345C210.023 361.067 209.743 362.532 209.184 363.74C208.625 364.949 207.855 365.87 206.872 366.505C205.89 367.139 204.787 367.456 203.563 367.456ZM203.563 365.44C204.394 365.44 205.12 365.213 205.739 364.76C206.374 364.307 206.865 363.627 207.212 362.721C207.575 361.814 207.756 360.689 207.756 359.345C207.756 358 207.575 356.875 207.212 355.969C206.865 355.062 206.374 354.383 205.739 353.93C205.12 353.476 204.394 353.25 203.563 353.25C202.732 353.25 201.999 353.476 201.364 353.93C200.73 354.383 200.231 355.062 199.868 355.969C199.521 356.875 199.347 358 199.347 359.345C199.347 360.689 199.521 361.814 199.868 362.721C200.231 363.627 200.73 364.307 201.364 364.76C201.999 365.213 202.732 365.44 203.563 365.44Z" fill="black"/>
<path d="M220.721 367.411C219.497 367.411 218.402 367.147 217.435 366.618C216.483 366.089 215.735 365.364 215.191 364.443C214.647 363.521 214.375 362.464 214.375 361.271C214.375 360.077 214.647 359.02 215.191 358.099C215.735 357.177 216.483 356.46 217.435 355.946C218.402 355.417 219.497 355.153 220.721 355.153C221.809 355.153 222.776 355.372 223.623 355.81C224.484 356.233 225.149 356.868 225.617 357.713L223.963 358.778C223.57 358.189 223.086 357.759 222.512 357.487C221.953 357.2 221.348 357.056 220.699 357.056C219.913 357.056 219.21 357.23 218.591 357.577C217.971 357.925 217.48 358.416 217.117 359.05C216.755 359.67 216.573 360.41 216.573 361.271C216.573 362.132 216.755 362.879 217.117 363.514C217.48 364.148 217.971 364.639 218.591 364.987C219.21 365.334 219.913 365.508 220.699 365.508C221.348 365.508 221.953 365.372 222.512 365.1C223.086 364.813 223.57 364.375 223.963 363.786L225.617 364.828C225.149 365.659 224.484 366.301 223.623 366.754C222.776 367.192 221.809 367.411 220.721 367.411Z" fill="black"/>
<path d="M230.701 367.275V355.266H232.945L238.113 364.148H237.206L242.51 355.266H244.55V367.275H242.578V357.713L242.941 357.917L238.09 365.916H237.138L232.265 357.759L232.696 357.668V367.275H230.701Z" fill="black"/>
<path d="M202.516 22.877C211.754 15.3592 229.342 19.3276 234.551 30.02C236.087 33.1506 233.304 33.5915 231.857 34.9363C220.57 45.3863 206.968 45.5847 194.768 36.0828C189.96 32.3349 189.425 29.8657 195.08 26.8012C197.573 25.4564 199.043 22.2817 202.582 22.8108C203.25 25.3021 207.971 27.3199 205.032 27.5183C212.713 28.0695 214.916 24.5305 223.487 28.9177C216.563 23.4943 207.97 28.3224 202.516 22.877Z" fill="black"/>
<path d="M198.666 34.4296C208.728 30.7038 217.166 30.7038 226.138 34.5398C217.077 42.2781 208.528 41.6167 198.666 34.4296Z" fill="url(#paint0_linear_2152_1391)"/>
<path d="M203.606 23.6173C211.242 25.0944 219.52 20.1603 227 30.5C218.629 30.5 211.862 30.1252 205.138 30.5882C195.432 31.2496 202.378 26.5316 202.712 23.9302C202.712 23.9522 203.606 23.6173 203.606 23.6173Z" fill="url(#paint1_linear_2152_1391)"/>
<defs>
<linearGradient id="paint0_linear_2152_1391" x1="212.5" y1="0" x2="212.5" y2="651" gradientUnits="userSpaceOnUse">
<stop stop-color="#F04393"/>
<stop offset="0.0961538" stop-color="#F9C449"/>
</linearGradient>
<linearGradient id="paint1_linear_2152_1391" x1="212.5" y1="0" x2="212.5" y2="651" gradientUnits="userSpaceOnUse">
<stop stop-color="#F04393"/>
<stop offset="0.0961538" stop-color="#F9C449"/>
</linearGradient>
</defs>
</svg>
